<?xml version="1.0" encoding="utf-8" standalone="no"?>
<!DOCTYPE svg PUBLIC "-//W3C//DTD SVG 1.1//EN" 
"http://www.w3.org/Graphics/SVG/1.1/DTD/svg11.dtd">
<svg width="1891px" height="1873px" viewBox="0 0 1891 1873"
xmlns="http://www.w3.org/2000/svg" version="1.1">
<rect x="0" y="0" width="1891" height="1873" fill="none" stroke="rgb(192,192,192)" stroke-width="1"/>
<text x="1355" y="1869" font-family="Times" font-size="12" xml:space="preserve"  fill="rgb(0,0,0)" textLength="106">YP_005352862.1</text>
<text x="1776" y="1849" font-family="Times" font-size="12" xml:space="preserve"  fill="rgb(0,0,0)" textLength="106">YP_005352870.1</text>
<text x="1628" y="1828" font-family="Times" font-size="12" xml:space="preserve"  fill="rgb(0,0,0)" textLength="106">YP_005352880.1</text>
<text x="1676" y="1808" font-family="Times" font-size="12" xml:space="preserve"  fill="rgb(0,0,0)" textLength="106">YP_005352837.1</text>
<text x="1665" y="1787" font-family="Times" font-size="12" xml:space="preserve"  fill="rgb(0,0,0)" textLength="106">YP_002308478.1</text>
<text x="1701" y="1767" font-family="Times" font-size="12" xml:space="preserve"  fill="rgb(0,0,0)" textLength="106">YP_002308496.1</text>
<text x="1730" y="1747" font-family="Times" font-size="12" xml:space="preserve"  fill="rgb(0,0,0)" textLength="106">YP_002308505.1</text>
<text x="1709" y="1726" font-family="Times" font-size="12" xml:space="preserve"  fill="rgb(0,0,0)" textLength="106">YP_005352853.1</text>
<text x="1668" y="1706" font-family="Times" font-size="12" xml:space="preserve"  fill="rgb(0,0,0)" textLength="106">YP_005352845.1</text>
<text x="1677" y="1686" font-family="Times" font-size="12" xml:space="preserve"  fill="rgb(0,0,0)" textLength="106">YP_009513020.1</text>
<text x="985" y="1665" font-family="Times" font-size="12" xml:space="preserve"  fill="rgb(0,0,0)" textLength="106">YP_001876435.1</text>
<text x="883" y="1645" font-family="Times" font-size="12" xml:space="preserve"  fill="rgb(0,0,0)" textLength="106">YP_009755895.1</text>
<text x="883" y="1624" font-family="Times" font-size="12" xml:space="preserve"  fill="rgb(0,0,0)" textLength="106">YP_009755920.1</text>
<text x="857" y="1604" font-family="Times" font-size="12" xml:space="preserve"  fill="rgb(0,0,0)" textLength="106">YP_009825029.1</text>
<text x="857" y="1584" font-family="Times" font-size="12" xml:space="preserve"  fill="rgb(0,0,0)" textLength="106">YP_009825006.1</text>
<text x="1525" y="1563" font-family="Times" font-size="12" xml:space="preserve"  fill="rgb(0,0,0)" textLength="106">YP_009824997.1</text>
<text x="1095" y="1543" font-family="Times" font-size="12" xml:space="preserve"  fill="rgb(0,0,0)" textLength="106">YP_009824996.1</text>
<text x="950" y="1523" font-family="Times" font-size="12" xml:space="preserve"  fill="rgb(0,0,0)" textLength="85">NP_066134.1</text>
<text x="950" y="1502" font-family="Times" font-size="12" xml:space="preserve"  fill="rgb(0,0,0)" textLength="85">NP_740629.1</text>
<text x="951" y="1482" font-family="Times" font-size="12" xml:space="preserve"  fill="rgb(0,0,0)" textLength="106">YP_001941164.2</text>
<text x="951" y="1461" font-family="Times" font-size="12" xml:space="preserve"  fill="rgb(0,0,0)" textLength="106">YP_001941185.1</text>
<text x="1064" y="1441" font-family="Times" font-size="12" xml:space="preserve"  fill="rgb(0,0,0)" textLength="106">YP_009513008.1</text>
<text x="1233" y="1421" font-family="Times" font-size="12" xml:space="preserve"  fill="rgb(0,0,0)" textLength="106">YP_001039952.1</text>
<text x="1233" y="1400" font-family="Times" font-size="12" xml:space="preserve"  fill="rgb(0,0,0)" textLength="106">YP_009944320.1</text>
<text x="1188" y="1380" font-family="Times" font-size="12" xml:space="preserve"  fill="rgb(0,0,0)" textLength="106">YP_009944349.1</text>
<text x="1188" y="1360" font-family="Times" font-size="12" xml:space="preserve"  fill="rgb(0,0,0)" textLength="106">YP_001039961.1</text>
<text x="1152" y="1339" font-family="Times" font-size="12" xml:space="preserve"  fill="rgb(0,0,0)" textLength="106">YP_009047223.1</text>
<text x="1152" y="1319" font-family="Times" font-size="12" xml:space="preserve"  fill="rgb(0,0,0)" textLength="106">YP_009047202.1</text>
<text x="1154" y="1298" font-family="Times" font-size="12" xml:space="preserve"  fill="rgb(0,0,0)" textLength="106">YP_009944302.1</text>
<text x="1154" y="1278" font-family="Times" font-size="12" xml:space="preserve"  fill="rgb(0,0,0)" textLength="106">YP_007188577.3</text>
<text x="1234" y="1258" font-family="Times" font-size="12" xml:space="preserve"  fill="rgb(0,0,0)" textLength="106">YP_009072438.1</text>
<text x="1265" y="1237" font-family="Times" font-size="12" xml:space="preserve"  fill="rgb(0,0,0)" textLength="106">YP_009725307.1</text>
<text x="1265" y="1217" font-family="Times" font-size="12" xml:space="preserve"  fill="rgb(0,0,0)" textLength="106">YP_009724389.1</text>
<text x="1255" y="1197" font-family="Times" font-size="12" xml:space="preserve"  fill="rgb(0,0,0)" textLength="85">NP_828849.7</text>
<text x="1277" y="1176" font-family="Times" font-size="12" xml:space="preserve"  fill="rgb(0,0,0)" textLength="106">YP_003858583.1</text>
<text x="1309" y="1156" font-family="Times" font-size="12" xml:space="preserve"  fill="rgb(0,0,0)" textLength="106">YP_009273004.1</text>
<text x="1309" y="1135" font-family="Times" font-size="12" xml:space="preserve"  fill="rgb(0,0,0)" textLength="106">YP_009924393.1</text>
<text x="1309" y="1115" font-family="Times" font-size="12" xml:space="preserve"  fill="rgb(0,0,0)" textLength="106">YP_001039970.1</text>
<text x="1185" y="1095" font-family="Times" font-size="12" xml:space="preserve"  fill="rgb(0,0,0)" textLength="106">YP_009824978.1</text>
<text x="1185" y="1074" font-family="Times" font-size="12" xml:space="preserve"  fill="rgb(0,0,0)" textLength="106">YP_009924352.1</text>
<text x="1197" y="1054" font-family="Times" font-size="12" xml:space="preserve"  fill="rgb(0,0,0)" textLength="85">NP_045299.2</text>
<text x="1197" y="1034" font-family="Times" font-size="12" xml:space="preserve"  fill="rgb(0,0,0)" textLength="106">YP_009915683.1</text>
<text x="1205" y="1013" font-family="Times" font-size="12" xml:space="preserve"  fill="rgb(0,0,0)" textLength="109">NP_001012452.2</text>
<text x="1205" y="993" font-family="Times" font-size="12" xml:space="preserve"  fill="rgb(0,0,0)" textLength="82">YP_209229.2</text>
<text x="1177" y="972" font-family="Times" font-size="12" xml:space="preserve"  fill="rgb(0,0,0)" textLength="106">YP_009924378.1</text>
<text x="1177" y="952" font-family="Times" font-size="12" xml:space="preserve"  fill="rgb(0,0,0)" textLength="106">YP_003029844.1</text>
<text x="1217" y="932" font-family="Times" font-size="12" xml:space="preserve"  fill="rgb(0,0,0)" textLength="82">YP_459941.1</text>
<text x="1217" y="911" font-family="Times" font-size="12" xml:space="preserve"  fill="rgb(0,0,0)" textLength="82">YP_173236.1</text>
<text x="1186" y="891" font-family="Times" font-size="12" xml:space="preserve"  fill="rgb(0,0,0)" textLength="106">YP_009113022.1</text>
<text x="1189" y="870" font-family="Times" font-size="12" xml:space="preserve"  fill="rgb(0,0,0)" textLength="85">NP_150073.3</text>
<text x="1202" y="850" font-family="Times" font-size="12" xml:space="preserve"  fill="rgb(0,0,0)" textLength="106">YP_009555260.1</text>
<text x="1202" y="830" font-family="Times" font-size="12" xml:space="preserve"  fill="rgb(0,0,0)" textLength="106">YP_009555238.1</text>
<text x="1194" y="809" font-family="Times" font-size="12" xml:space="preserve"  fill="rgb(0,0,0)" textLength="106">YP_005454239.1</text>
<text x="1194" y="789" font-family="Times" font-size="12" xml:space="preserve"  fill="rgb(0,0,0)" textLength="106">YP_009924419.1</text>
<text x="1304" y="769" font-family="Times" font-size="12" xml:space="preserve"  fill="rgb(0,0,0)" textLength="106">YP_009824973.1</text>
<text x="1296" y="748" font-family="Times" font-size="12" xml:space="preserve"  fill="rgb(0,0,0)" textLength="106">YP_009389424.1</text>
<text x="1665" y="728" font-family="Times" font-size="12" xml:space="preserve"  fill="rgb(0,0,0)" textLength="106">YP_009755838.1</text>
<text x="1326" y="707" font-family="Times" font-size="12" xml:space="preserve"  fill="rgb(0,0,0)" textLength="106">YP_009256195.1</text>
<text x="1326" y="687" font-family="Times" font-size="12" xml:space="preserve"  fill="rgb(0,0,0)" textLength="106">YP_009019180.1</text>
<text x="1330" y="667" font-family="Times" font-size="12" xml:space="preserve"  fill="rgb(0,0,0)" textLength="106">YP_004070193.2</text>
<text x="1340" y="646" font-family="Times" font-size="12" xml:space="preserve"  fill="rgb(0,0,0)" textLength="106">YP_009199241.1</text>
<text x="1317" y="626" font-family="Times" font-size="12" xml:space="preserve"  fill="rgb(0,0,0)" textLength="85">NP_058422.1</text>
<text x="1501" y="606" font-family="Times" font-size="12" xml:space="preserve"  fill="rgb(0,0,0)" textLength="106">YP_009380520.1</text>
<text x="1497" y="585" font-family="Times" font-size="12" xml:space="preserve"  fill="rgb(0,0,0)" textLength="106">YP_009336483.1</text>
<text x="1458" y="565" font-family="Times" font-size="12" xml:space="preserve"  fill="rgb(0,0,0)" textLength="106">YP_009200734.1</text>
<text x="1455" y="544" font-family="Times" font-size="12" xml:space="preserve"  fill="rgb(0,0,0)" textLength="106">YP_001552234.1</text>
<text x="1564" y="524" font-family="Times" font-size="12" xml:space="preserve"  fill="rgb(0,0,0)" textLength="106">YP_009824965.1</text>
<text x="1574" y="504" font-family="Times" font-size="12" xml:space="preserve"  fill="rgb(0,0,0)" textLength="106">YP_009328933.1</text>
<text x="1653" y="483" font-family="Times" font-size="12" xml:space="preserve"  fill="rgb(0,0,0)" textLength="82">YP_003766.2</text>
<text x="1594" y="463" font-family="Times" font-size="12" xml:space="preserve"  fill="rgb(0,0,0)" textLength="106">YP_009194637.1</text>
<text x="1615" y="443" font-family="Times" font-size="12" xml:space="preserve"  fill="rgb(0,0,0)" textLength="85">NP_073549.1</text>
<text x="1615" y="422" font-family="Times" font-size="12" xml:space="preserve"  fill="rgb(0,0,0)" textLength="85">NP_835352.1</text>
<text x="1667" y="402" font-family="Times" font-size="12" xml:space="preserve"  fill="rgb(0,0,0)" textLength="106">YP_010115715.1</text>
<text x="1593" y="381" font-family="Times" font-size="12" xml:space="preserve"  fill="rgb(0,0,0)" textLength="106">YP_001718603.1</text>
<text x="1594" y="361" font-family="Times" font-size="12" xml:space="preserve"  fill="rgb(0,0,0)" textLength="106">YP_001718610.1</text>
<text x="1716" y="341" font-family="Times" font-size="12" xml:space="preserve"  fill="rgb(0,0,0)" textLength="106">YP_010037559.1</text>
<text x="1668" y="320" font-family="Times" font-size="12" xml:space="preserve"  fill="rgb(0,0,0)" textLength="106">YP_010799723.1</text>
<text x="1626" y="300" font-family="Times" font-size="12" xml:space="preserve"  fill="rgb(0,0,0)" textLength="106">YP_009755889.1</text>
<text x="1674" y="280" font-family="Times" font-size="12" xml:space="preserve"  fill="rgb(0,0,0)" textLength="106">YP_009201729.1</text>
<text x="1650" y="259" font-family="Times" font-size="12" xml:space="preserve"  fill="rgb(0,0,0)" textLength="106">YP_009199608.1</text>
<text x="1770" y="239" font-family="Times" font-size="12" xml:space="preserve"  fill="rgb(0,0,0)" textLength="106">YP_010037467.1</text>
<text x="1766" y="218" font-family="Times" font-size="12" xml:space="preserve"  fill="rgb(0,0,0)" textLength="85">NP_839965.1</text>
<text x="1761" y="198" font-family="Times" font-size="12" xml:space="preserve"  fill="rgb(0,0,0)" textLength="85">NP_598309.2</text>
<text x="1775" y="178" font-family="Times" font-size="12" xml:space="preserve"  fill="rgb(0,0,0)" textLength="106">YP_010799342.1</text>
<text x="1773" y="157" font-family="Times" font-size="12" xml:space="preserve"  fill="rgb(0,0,0)" textLength="106">YP_001351683.1</text>
<text x="1738" y="137" font-family="Times" font-size="12" xml:space="preserve"  fill="rgb(0,0,0)" textLength="106">YP_008439222.1</text>
<text x="1738" y="117" font-family="Times" font-size="12" xml:space="preserve"  fill="rgb(0,0,0)" textLength="106">YP_008439200.1</text>
<text x="1554" y="96" font-family="Times" font-size="12" xml:space="preserve"  fill="rgb(0,0,0)" textLength="106">YP_010799729.1</text>
<text x="1622" y="76" font-family="Times" font-size="12" xml:space="preserve"  fill="rgb(0,0,0)" textLength="106">YP_009199789.1</text>
<text x="1687" y="55" font-family="Times" font-size="12" xml:space="preserve"  fill="rgb(0,0,0)" textLength="106">YP_006908641.2</text>
<text x="1672" y="35" font-family="Times" font-size="12" xml:space="preserve"  fill="rgb(0,0,0)" textLength="106">YP_010037473.1</text>
<line x1="1602" y1="1782" x2="1662" y2="1782" style="stroke:rgb(0,0,0);stroke-width:1;stroke-linecap:butt" />
<line x1="1602" y1="1762" x2="1698" y2="1762" style="stroke:rgb(0,0,0);stroke-width:1;stroke-linecap:butt" />
<line x1="1602" y1="1782" x2="1602" y2="1762" style="stroke:rgb(0,0,0);stroke-width:1;stroke-linecap:butt" />
<line x1="1565" y1="1803" x2="1674" y2="1803" style="stroke:rgb(0,0,0);stroke-width:1;stroke-linecap:butt" />
<line x1="1565" y1="1772" x2="1602" y2="1772" style="stroke:rgb(0,0,0);stroke-width:1;stroke-linecap:butt" />
<line x1="1565" y1="1803" x2="1565" y2="1772" style="stroke:rgb(0,0,0);stroke-width:1;stroke-linecap:butt" />
<line x1="1658" y1="1742" x2="1728" y2="1742" style="stroke:rgb(0,0,0);stroke-width:1;stroke-linecap:butt" />
<line x1="1658" y1="1721" x2="1707" y2="1721" style="stroke:rgb(0,0,0);stroke-width:1;stroke-linecap:butt" />
<line x1="1658" y1="1742" x2="1658" y2="1721" style="stroke:rgb(0,0,0);stroke-width:1;stroke-linecap:butt" />
<line x1="1652" y1="1701" x2="1666" y2="1701" style="stroke:rgb(0,0,0);stroke-width:1;stroke-linecap:butt" />
<line x1="1652" y1="1681" x2="1675" y2="1681" style="stroke:rgb(0,0,0);stroke-width:1;stroke-linecap:butt" />
<line x1="1652" y1="1701" x2="1652" y2="1681" style="stroke:rgb(0,0,0);stroke-width:1;stroke-linecap:butt" />
<line x1="1577" y1="1732" x2="1658" y2="1732" style="stroke:rgb(0,0,0);stroke-width:1;stroke-linecap:butt" />
<line x1="1577" y1="1691" x2="1652" y2="1691" style="stroke:rgb(0,0,0);stroke-width:1;stroke-linecap:butt" />
<line x1="1577" y1="1732" x2="1577" y2="1691" style="stroke:rgb(0,0,0);stroke-width:1;stroke-linecap:butt" />
<line x1="1522" y1="1788" x2="1565" y2="1788" style="stroke:rgb(0,0,0);stroke-width:1;stroke-linecap:butt" />
<line x1="1522" y1="1711" x2="1577" y2="1711" style="stroke:rgb(0,0,0);stroke-width:1;stroke-linecap:butt" />
<line x1="1522" y1="1788" x2="1522" y2="1711" style="stroke:rgb(0,0,0);stroke-width:1;stroke-linecap:butt" />
<line x1="1452" y1="1823" x2="1626" y2="1823" style="stroke:rgb(0,0,0);stroke-width:1;stroke-linecap:butt" />
<line x1="1452" y1="1749" x2="1522" y2="1749" style="stroke:rgb(0,0,0);stroke-width:1;stroke-linecap:butt" />
<line x1="1452" y1="1823" x2="1452" y2="1749" style="stroke:rgb(0,0,0);stroke-width:1;stroke-linecap:butt" />
<line x1="1216" y1="1844" x2="1773" y2="1844" style="stroke:rgb(0,0,0);stroke-width:1;stroke-linecap:butt" />
<line x1="1216" y1="1786" x2="1452" y2="1786" style="stroke:rgb(0,0,0);stroke-width:1;stroke-linecap:butt" />
<line x1="1216" y1="1844" x2="1216" y2="1786" style="stroke:rgb(0,0,0);stroke-width:1;stroke-linecap:butt" />
<line x1="1071" y1="1864" x2="1352" y2="1864" style="stroke:rgb(0,0,0);stroke-width:1;stroke-linecap:butt" />
<line x1="1071" y1="1815" x2="1216" y2="1815" style="stroke:rgb(0,0,0);stroke-width:1;stroke-linecap:butt" />
<line x1="1071" y1="1864" x2="1071" y2="1815" style="stroke:rgb(0,0,0);stroke-width:1;stroke-linecap:butt" />
<line x1="881" y1="1640" x2="881" y2="1640" style="stroke:rgb(0,0,0);stroke-width:1;stroke-linecap:butt" />
<line x1="881" y1="1619" x2="881" y2="1619" style="stroke:rgb(0,0,0);stroke-width:1;stroke-linecap:butt" />
<line x1="881" y1="1640" x2="881" y2="1619" style="stroke:rgb(0,0,0);stroke-width:1;stroke-linecap:butt" />
<line x1="854" y1="1599" x2="854" y2="1599" style="stroke:rgb(0,0,0);stroke-width:1;stroke-linecap:butt" />
<line x1="854" y1="1579" x2="854" y2="1579" style="stroke:rgb(0,0,0);stroke-width:1;stroke-linecap:butt" />
<line x1="854" y1="1599" x2="854" y2="1579" style="stroke:rgb(0,0,0);stroke-width:1;stroke-linecap:butt" />
<line x1="955" y1="1558" x2="1523" y2="1558" style="stroke:rgb(0,0,0);stroke-width:1;stroke-linecap:butt" />
<line x1="955" y1="1538" x2="1093" y2="1538" style="stroke:rgb(0,0,0);stroke-width:1;stroke-linecap:butt" />
<line x1="955" y1="1558" x2="955" y2="1538" style="stroke:rgb(0,0,0);stroke-width:1;stroke-linecap:butt" />
<line x1="948" y1="1518" x2="948" y2="1518" style="stroke:rgb(0,0,0);stroke-width:1;stroke-linecap:butt" />
<line x1="948" y1="1497" x2="948" y2="1497" style="stroke:rgb(0,0,0);stroke-width:1;stroke-linecap:butt" />
<line x1="948" y1="1518" x2="948" y2="1497" style="stroke:rgb(0,0,0);stroke-width:1;stroke-linecap:butt" />
<line x1="930" y1="1548" x2="955" y2="1548" style="stroke:rgb(0,0,0);stroke-width:1;stroke-linecap:butt" />
<line x1="930" y1="1507" x2="948" y2="1507" style="stroke:rgb(0,0,0);stroke-width:1;stroke-linecap:butt" />
<line x1="930" y1="1548" x2="930" y2="1507" style="stroke:rgb(0,0,0);stroke-width:1;stroke-linecap:butt" />
<line x1="949" y1="1477" x2="949" y2="1477" style="stroke:rgb(0,0,0);stroke-width:1;stroke-linecap:butt" />
<line x1="949" y1="1456" x2="949" y2="1456" style="stroke:rgb(0,0,0);stroke-width:1;stroke-linecap:butt" />
<line x1="949" y1="1477" x2="949" y2="1456" style="stroke:rgb(0,0,0);stroke-width:1;stroke-linecap:butt" />
<line x1="924" y1="1528" x2="930" y2="1528" style="stroke:rgb(0,0,0);stroke-width:1;stroke-linecap:butt" />
<line x1="924" y1="1467" x2="949" y2="1467" style="stroke:rgb(0,0,0);stroke-width:1;stroke-linecap:butt" />
<line x1="924" y1="1528" x2="924" y2="1467" style="stroke:rgb(0,0,0);stroke-width:1;stroke-linecap:butt" />
<line x1="761" y1="1589" x2="854" y2="1589" style="stroke:rgb(0,0,0);stroke-width:1;stroke-linecap:butt" />
<line x1="761" y1="1497" x2="924" y2="1497" style="stroke:rgb(0,0,0);stroke-width:1;stroke-linecap:butt" />
<line x1="761" y1="1589" x2="761" y2="1497" style="stroke:rgb(0,0,0);stroke-width:1;stroke-linecap:butt" />
<line x1="667" y1="1630" x2="881" y2="1630" style="stroke:rgb(0,0,0);stroke-width:1;stroke-linecap:butt" />
<line x1="667" y1="1543" x2="761" y2="1543" style="stroke:rgb(0,0,0);stroke-width:1;stroke-linecap:butt" />
<line x1="667" y1="1630" x2="667" y2="1543" style="stroke:rgb(0,0,0);stroke-width:1;stroke-linecap:butt" />
<line x1="446" y1="1660" x2="983" y2="1660" style="stroke:rgb(0,0,0);stroke-width:1;stroke-linecap:butt" />
<line x1="446" y1="1586" x2="667" y2="1586" style="stroke:rgb(0,0,0);stroke-width:1;stroke-linecap:butt" />
<line x1="446" y1="1660" x2="446" y2="1586" style="stroke:rgb(0,0,0);stroke-width:1;stroke-linecap:butt" />
<line x1="1231" y1="1416" x2="1231" y2="1416" style="stroke:rgb(0,0,0);stroke-width:1;stroke-linecap:butt" />
<line x1="1231" y1="1395" x2="1231" y2="1395" style="stroke:rgb(0,0,0);stroke-width:1;stroke-linecap:butt" />
<line x1="1231" y1="1416" x2="1231" y2="1395" style="stroke:rgb(0,0,0);stroke-width:1;stroke-linecap:butt" />
<line x1="1185" y1="1375" x2="1185" y2="1375" style="stroke:rgb(0,0,0);stroke-width:1;stroke-linecap:butt" />
<line x1="1185" y1="1355" x2="1185" y2="1355" style="stroke:rgb(0,0,0);stroke-width:1;stroke-linecap:butt" />
<line x1="1185" y1="1375" x2="1185" y2="1355" style="stroke:rgb(0,0,0);stroke-width:1;stroke-linecap:butt" />
<line x1="1129" y1="1406" x2="1231" y2="1406" style="stroke:rgb(0,0,0);stroke-width:1;stroke-linecap:butt" />
<line x1="1129" y1="1365" x2="1185" y2="1365" style="stroke:rgb(0,0,0);stroke-width:1;stroke-linecap:butt" />
<line x1="1129" y1="1406" x2="1129" y2="1365" style="stroke:rgb(0,0,0);stroke-width:1;stroke-linecap:butt" />
<line x1="1151" y1="1293" x2="1151" y2="1293" style="stroke:rgb(0,0,0);stroke-width:1;stroke-linecap:butt" />
<line x1="1151" y1="1273" x2="1151" y2="1273" style="stroke:rgb(0,0,0);stroke-width:1;stroke-linecap:butt" />
<line x1="1151" y1="1293" x2="1151" y2="1273" style="stroke:rgb(0,0,0);stroke-width:1;stroke-linecap:butt" />
<line x1="1149" y1="1314" x2="1149" y2="1314" style="stroke:rgb(0,0,0);stroke-width:1;stroke-linecap:butt" />
<line x1="1149" y1="1283" x2="1151" y2="1283" style="stroke:rgb(0,0,0);stroke-width:1;stroke-linecap:butt" />
<line x1="1149" y1="1314" x2="1149" y2="1283" style="stroke:rgb(0,0,0);stroke-width:1;stroke-linecap:butt" />
<line x1="1149" y1="1334" x2="1149" y2="1334" style="stroke:rgb(0,0,0);stroke-width:1;stroke-linecap:butt" />
<line x1="1149" y1="1299" x2="1149" y2="1299" style="stroke:rgb(0,0,0);stroke-width:1;stroke-linecap:butt" />
<line x1="1149" y1="1334" x2="1149" y2="1299" style="stroke:rgb(0,0,0);stroke-width:1;stroke-linecap:butt" />
<line x1="1080" y1="1385" x2="1129" y2="1385" style="stroke:rgb(0,0,0);stroke-width:1;stroke-linecap:butt" />
<line x1="1080" y1="1316" x2="1149" y2="1316" style="stroke:rgb(0,0,0);stroke-width:1;stroke-linecap:butt" />
<line x1="1080" y1="1385" x2="1080" y2="1316" style="stroke:rgb(0,0,0);stroke-width:1;stroke-linecap:butt" />
<line x1="987" y1="1436" x2="1061" y2="1436" style="stroke:rgb(0,0,0);stroke-width:1;stroke-linecap:butt" />
<line x1="987" y1="1351" x2="1080" y2="1351" style="stroke:rgb(0,0,0);stroke-width:1;stroke-linecap:butt" />
<line x1="987" y1="1436" x2="987" y2="1351" style="stroke:rgb(0,0,0);stroke-width:1;stroke-linecap:butt" />
<line x1="1262" y1="1232" x2="1262" y2="1232" style="stroke:rgb(0,0,0);stroke-width:1;stroke-linecap:butt" />
<line x1="1262" y1="1212" x2="1262" y2="1212" style="stroke:rgb(0,0,0);stroke-width:1;stroke-linecap:butt" />
<line x1="1262" y1="1232" x2="1262" y2="1212" style="stroke:rgb(0,0,0);stroke-width:1;stroke-linecap:butt" />
<line x1="1238" y1="1192" x2="1252" y2="1192" style="stroke:rgb(0,0,0);stroke-width:1;stroke-linecap:butt" />
<line x1="1238" y1="1171" x2="1274" y2="1171" style="stroke:rgb(0,0,0);stroke-width:1;stroke-linecap:butt" />
<line x1="1238" y1="1192" x2="1238" y2="1171" style="stroke:rgb(0,0,0);stroke-width:1;stroke-linecap:butt" />
<line x1="1215" y1="1222" x2="1262" y2="1222" style="stroke:rgb(0,0,0);stroke-width:1;stroke-linecap:butt" />
<line x1="1215" y1="1181" x2="1238" y2="1181" style="stroke:rgb(0,0,0);stroke-width:1;stroke-linecap:butt" />
<line x1="1215" y1="1222" x2="1215" y2="1181" style="stroke:rgb(0,0,0);stroke-width:1;stroke-linecap:butt" />
<line x1="937" y1="1253" x2="1232" y2="1253" style="stroke:rgb(0,0,0);stroke-width:1;stroke-linecap:butt" />
<line x1="937" y1="1202" x2="1215" y2="1202" style="stroke:rgb(0,0,0);stroke-width:1;stroke-linecap:butt" />
<line x1="937" y1="1253" x2="937" y2="1202" style="stroke:rgb(0,0,0);stroke-width:1;stroke-linecap:butt" />
<line x1="1306" y1="1130" x2="1306" y2="1130" style="stroke:rgb(0,0,0);stroke-width:1;stroke-linecap:butt" />
<line x1="1306" y1="1110" x2="1306" y2="1110" style="stroke:rgb(0,0,0);stroke-width:1;stroke-linecap:butt" />
<line x1="1306" y1="1130" x2="1306" y2="1110" style="stroke:rgb(0,0,0);stroke-width:1;stroke-linecap:butt" />
<line x1="1198" y1="1151" x2="1306" y2="1151" style="stroke:rgb(0,0,0);stroke-width:1;stroke-linecap:butt" />
<line x1="1198" y1="1120" x2="1306" y2="1120" style="stroke:rgb(0,0,0);stroke-width:1;stroke-linecap:butt" />
<line x1="1198" y1="1151" x2="1198" y2="1120" style="stroke:rgb(0,0,0);stroke-width:1;stroke-linecap:butt" />
<line x1="810" y1="1227" x2="937" y2="1227" style="stroke:rgb(0,0,0);stroke-width:1;stroke-linecap:butt" />
<line x1="810" y1="1135" x2="1198" y2="1135" style="stroke:rgb(0,0,0);stroke-width:1;stroke-linecap:butt" />
<line x1="810" y1="1227" x2="810" y2="1135" style="stroke:rgb(0,0,0);stroke-width:1;stroke-linecap:butt" />
<line x1="686" y1="1393" x2="987" y2="1393" style="stroke:rgb(0,0,0);stroke-width:1;stroke-linecap:butt" />
<line x1="686" y1="1181" x2="810" y2="1181" style="stroke:rgb(0,0,0);stroke-width:1;stroke-linecap:butt" />
<line x1="686" y1="1393" x2="686" y2="1181" style="stroke:rgb(0,0,0);stroke-width:1;stroke-linecap:butt" />
<line x1="1195" y1="1049" x2="1195" y2="1049" style="stroke:rgb(0,0,0);stroke-width:1;stroke-linecap:butt" />
<line x1="1195" y1="1029" x2="1195" y2="1029" style="stroke:rgb(0,0,0);stroke-width:1;stroke-linecap:butt" />
<line x1="1195" y1="1049" x2="1195" y2="1029" style="stroke:rgb(0,0,0);stroke-width:1;stroke-linecap:butt" />
<line x1="1183" y1="1069" x2="1183" y2="1069" style="stroke:rgb(0,0,0);stroke-width:1;stroke-linecap:butt" />
<line x1="1183" y1="1039" x2="1195" y2="1039" style="stroke:rgb(0,0,0);stroke-width:1;stroke-linecap:butt" />
<line x1="1183" y1="1069" x2="1183" y2="1039" style="stroke:rgb(0,0,0);stroke-width:1;stroke-linecap:butt" />
<line x1="1183" y1="1090" x2="1183" y2="1090" style="stroke:rgb(0,0,0);stroke-width:1;stroke-linecap:butt" />
<line x1="1183" y1="1054" x2="1183" y2="1054" style="stroke:rgb(0,0,0);stroke-width:1;stroke-linecap:butt" />
<line x1="1183" y1="1090" x2="1183" y2="1054" style="stroke:rgb(0,0,0);stroke-width:1;stroke-linecap:butt" />
<line x1="1203" y1="1008" x2="1203" y2="1008" style="stroke:rgb(0,0,0);stroke-width:1;stroke-linecap:butt" />
<line x1="1203" y1="988" x2="1203" y2="988" style="stroke:rgb(0,0,0);stroke-width:1;stroke-linecap:butt" />
<line x1="1203" y1="1008" x2="1203" y2="988" style="stroke:rgb(0,0,0);stroke-width:1;stroke-linecap:butt" />
<line x1="1177" y1="1072" x2="1183" y2="1072" style="stroke:rgb(0,0,0);stroke-width:1;stroke-linecap:butt" />
<line x1="1177" y1="998" x2="1203" y2="998" style="stroke:rgb(0,0,0);stroke-width:1;stroke-linecap:butt" />
<line x1="1177" y1="1072" x2="1177" y2="998" style="stroke:rgb(0,0,0);stroke-width:1;stroke-linecap:butt" />
<line x1="1174" y1="967" x2="1174" y2="967" style="stroke:rgb(0,0,0);stroke-width:1;stroke-linecap:butt" />
<line x1="1174" y1="947" x2="1174" y2="947" style="stroke:rgb(0,0,0);stroke-width:1;stroke-linecap:butt" />
<line x1="1174" y1="967" x2="1174" y2="947" style="stroke:rgb(0,0,0);stroke-width:1;stroke-linecap:butt" />
<line x1="1172" y1="1035" x2="1177" y2="1035" style="stroke:rgb(0,0,0);stroke-width:1;stroke-linecap:butt" />
<line x1="1172" y1="957" x2="1174" y2="957" style="stroke:rgb(0,0,0);stroke-width:1;stroke-linecap:butt" />
<line x1="1172" y1="1035" x2="1172" y2="957" style="stroke:rgb(0,0,0);stroke-width:1;stroke-linecap:butt" />
<line x1="1214" y1="927" x2="1214" y2="927" style="stroke:rgb(0,0,0);stroke-width:1;stroke-linecap:butt" />
<line x1="1214" y1="906" x2="1214" y2="906" style="stroke:rgb(0,0,0);stroke-width:1;stroke-linecap:butt" />
<line x1="1214" y1="927" x2="1214" y2="906" style="stroke:rgb(0,0,0);stroke-width:1;stroke-linecap:butt" />
<line x1="1091" y1="996" x2="1172" y2="996" style="stroke:rgb(0,0,0);stroke-width:1;stroke-linecap:butt" />
<line x1="1091" y1="916" x2="1214" y2="916" style="stroke:rgb(0,0,0);stroke-width:1;stroke-linecap:butt" />
<line x1="1091" y1="996" x2="1091" y2="916" style="stroke:rgb(0,0,0);stroke-width:1;stroke-linecap:butt" />
<line x1="1200" y1="845" x2="1200" y2="845" style="stroke:rgb(0,0,0);stroke-width:1;stroke-linecap:butt" />
<line x1="1200" y1="825" x2="1200" y2="825" style="stroke:rgb(0,0,0);stroke-width:1;stroke-linecap:butt" />
<line x1="1200" y1="845" x2="1200" y2="825" style="stroke:rgb(0,0,0);stroke-width:1;stroke-linecap:butt" />
<line x1="1181" y1="865" x2="1187" y2="865" style="stroke:rgb(0,0,0);stroke-width:1;stroke-linecap:butt" />
<line x1="1181" y1="835" x2="1200" y2="835" style="stroke:rgb(0,0,0);stroke-width:1;stroke-linecap:butt" />
<line x1="1181" y1="865" x2="1181" y2="835" style="stroke:rgb(0,0,0);stroke-width:1;stroke-linecap:butt" />
<line x1="1192" y1="804" x2="1192" y2="804" style="stroke:rgb(0,0,0);stroke-width:1;stroke-linecap:butt" />
<line x1="1192" y1="784" x2="1192" y2="784" style="stroke:rgb(0,0,0);stroke-width:1;stroke-linecap:butt" />
<line x1="1192" y1="804" x2="1192" y2="784" style="stroke:rgb(0,0,0);stroke-width:1;stroke-linecap:butt" />
<line x1="1142" y1="850" x2="1181" y2="850" style="stroke:rgb(0,0,0);stroke-width:1;stroke-linecap:butt" />
<line x1="1142" y1="794" x2="1192" y2="794" style="stroke:rgb(0,0,0);stroke-width:1;stroke-linecap:butt" />
<line x1="1142" y1="850" x2="1142" y2="794" style="stroke:rgb(0,0,0);stroke-width:1;stroke-linecap:butt" />
<line x1="1098" y1="886" x2="1183" y2="886" style="stroke:rgb(0,0,0);stroke-width:1;stroke-linecap:butt" />
<line x1="1098" y1="822" x2="1142" y2="822" style="stroke:rgb(0,0,0);stroke-width:1;stroke-linecap:butt" />
<line x1="1098" y1="886" x2="1098" y2="822" style="stroke:rgb(0,0,0);stroke-width:1;stroke-linecap:butt" />
<line x1="1061" y1="956" x2="1091" y2="956" style="stroke:rgb(0,0,0);stroke-width:1;stroke-linecap:butt" />
<line x1="1061" y1="854" x2="1098" y2="854" style="stroke:rgb(0,0,0);stroke-width:1;stroke-linecap:butt" />
<line x1="1061" y1="956" x2="1061" y2="854" style="stroke:rgb(0,0,0);stroke-width:1;stroke-linecap:butt" />
<line x1="565" y1="1287" x2="686" y2="1287" style="stroke:rgb(0,0,0);stroke-width:1;stroke-linecap:butt" />
<line x1="565" y1="905" x2="1061" y2="905" style="stroke:rgb(0,0,0);stroke-width:1;stroke-linecap:butt" />
<line x1="565" y1="1287" x2="565" y2="905" style="stroke:rgb(0,0,0);stroke-width:1;stroke-linecap:butt" />
<line x1="1293" y1="764" x2="1301" y2="764" style="stroke:rgb(0,0,0);stroke-width:1;stroke-linecap:butt" />
<line x1="1293" y1="743" x2="1293" y2="743" style="stroke:rgb(0,0,0);stroke-width:1;stroke-linecap:butt" />
<line x1="1293" y1="764" x2="1293" y2="743" style="stroke:rgb(0,0,0);stroke-width:1;stroke-linecap:butt" />
<line x1="1247" y1="702" x2="1324" y2="702" style="stroke:rgb(0,0,0);stroke-width:1;stroke-linecap:butt" />
<line x1="1247" y1="682" x2="1324" y2="682" style="stroke:rgb(0,0,0);stroke-width:1;stroke-linecap:butt" />
<line x1="1247" y1="702" x2="1247" y2="682" style="stroke:rgb(0,0,0);stroke-width:1;stroke-linecap:butt" />
<line x1="1312" y1="641" x2="1337" y2="641" style="stroke:rgb(0,0,0);stroke-width:1;stroke-linecap:butt" />
<line x1="1312" y1="621" x2="1315" y2="621" style="stroke:rgb(0,0,0);stroke-width:1;stroke-linecap:butt" />
<line x1="1312" y1="641" x2="1312" y2="621" style="stroke:rgb(0,0,0);stroke-width:1;stroke-linecap:butt" />
<line x1="1295" y1="662" x2="1328" y2="662" style="stroke:rgb(0,0,0);stroke-width:1;stroke-linecap:butt" />
<line x1="1295" y1="631" x2="1312" y2="631" style="stroke:rgb(0,0,0);stroke-width:1;stroke-linecap:butt" />
<line x1="1295" y1="662" x2="1295" y2="631" style="stroke:rgb(0,0,0);stroke-width:1;stroke-linecap:butt" />
<line x1="1151" y1="692" x2="1247" y2="692" style="stroke:rgb(0,0,0);stroke-width:1;stroke-linecap:butt" />
<line x1="1151" y1="646" x2="1295" y2="646" style="stroke:rgb(0,0,0);stroke-width:1;stroke-linecap:butt" />
<line x1="1151" y1="692" x2="1151" y2="646" style="stroke:rgb(0,0,0);stroke-width:1;stroke-linecap:butt" />
<line x1="1452" y1="601" x2="1498" y2="601" style="stroke:rgb(0,0,0);stroke-width:1;stroke-linecap:butt" />
<line x1="1452" y1="580" x2="1495" y2="580" style="stroke:rgb(0,0,0);stroke-width:1;stroke-linecap:butt" />
<line x1="1452" y1="601" x2="1452" y2="580" style="stroke:rgb(0,0,0);stroke-width:1;stroke-linecap:butt" />
<line x1="1452" y1="560" x2="1456" y2="560" style="stroke:rgb(0,0,0);stroke-width:1;stroke-linecap:butt" />
<line x1="1452" y1="539" x2="1453" y2="539" style="stroke:rgb(0,0,0);stroke-width:1;stroke-linecap:butt" />
<line x1="1452" y1="560" x2="1452" y2="539" style="stroke:rgb(0,0,0);stroke-width:1;stroke-linecap:butt" />
<line x1="1546" y1="499" x2="1571" y2="499" style="stroke:rgb(0,0,0);stroke-width:1;stroke-linecap:butt" />
<line x1="1546" y1="478" x2="1651" y2="478" style="stroke:rgb(0,0,0);stroke-width:1;stroke-linecap:butt" />
<line x1="1546" y1="499" x2="1546" y2="478" style="stroke:rgb(0,0,0);stroke-width:1;stroke-linecap:butt" />
<line x1="1453" y1="519" x2="1562" y2="519" style="stroke:rgb(0,0,0);stroke-width:1;stroke-linecap:butt" />
<line x1="1453" y1="489" x2="1546" y2="489" style="stroke:rgb(0,0,0);stroke-width:1;stroke-linecap:butt" />
<line x1="1453" y1="519" x2="1453" y2="489" style="stroke:rgb(0,0,0);stroke-width:1;stroke-linecap:butt" />
<line x1="1612" y1="438" x2="1612" y2="438" style="stroke:rgb(0,0,0);stroke-width:1;stroke-linecap:butt" />
<line x1="1612" y1="417" x2="1612" y2="417" style="stroke:rgb(0,0,0);stroke-width:1;stroke-linecap:butt" />
<line x1="1612" y1="438" x2="1612" y2="417" style="stroke:rgb(0,0,0);stroke-width:1;stroke-linecap:butt" />
<line x1="1575" y1="458" x2="1592" y2="458" style="stroke:rgb(0,0,0);stroke-width:1;stroke-linecap:butt" />
<line x1="1575" y1="427" x2="1612" y2="427" style="stroke:rgb(0,0,0);stroke-width:1;stroke-linecap:butt" />
<line x1="1575" y1="458" x2="1575" y2="427" style="stroke:rgb(0,0,0);stroke-width:1;stroke-linecap:butt" />
<line x1="1381" y1="504" x2="1453" y2="504" style="stroke:rgb(0,0,0);stroke-width:1;stroke-linecap:butt" />
<line x1="1381" y1="443" x2="1575" y2="443" style="stroke:rgb(0,0,0);stroke-width:1;stroke-linecap:butt" />
<line x1="1381" y1="504" x2="1381" y2="443" style="stroke:rgb(0,0,0);stroke-width:1;stroke-linecap:butt" />
<line x1="1478" y1="376" x2="1591" y2="376" style="stroke:rgb(0,0,0);stroke-width:1;stroke-linecap:butt" />
<line x1="1478" y1="356" x2="1591" y2="356" style="stroke:rgb(0,0,0);stroke-width:1;stroke-linecap:butt" />
<line x1="1478" y1="376" x2="1478" y2="356" style="stroke:rgb(0,0,0);stroke-width:1;stroke-linecap:butt" />
<line x1="1597" y1="336" x2="1714" y2="336" style="stroke:rgb(0,0,0);stroke-width:1;stroke-linecap:butt" />
<line x1="1597" y1="315" x2="1666" y2="315" style="stroke:rgb(0,0,0);stroke-width:1;stroke-linecap:butt" />
<line x1="1597" y1="336" x2="1597" y2="315" style="stroke:rgb(0,0,0);stroke-width:1;stroke-linecap:butt" />
<line x1="1555" y1="295" x2="1624" y2="295" style="stroke:rgb(0,0,0);stroke-width:1;stroke-linecap:butt" />
<line x1="1555" y1="275" x2="1672" y2="275" style="stroke:rgb(0,0,0);stroke-width:1;stroke-linecap:butt" />
<line x1="1555" y1="295" x2="1555" y2="275" style="stroke:rgb(0,0,0);stroke-width:1;stroke-linecap:butt" />
<line x1="1503" y1="325" x2="1597" y2="325" style="stroke:rgb(0,0,0);stroke-width:1;stroke-linecap:butt" />
<line x1="1503" y1="285" x2="1555" y2="285" style="stroke:rgb(0,0,0);stroke-width:1;stroke-linecap:butt" />
<line x1="1503" y1="325" x2="1503" y2="285" style="stroke:rgb(0,0,0);stroke-width:1;stroke-linecap:butt" />
<line x1="1756" y1="213" x2="1763" y2="213" style="stroke:rgb(0,0,0);stroke-width:1;stroke-linecap:butt" />
<line x1="1756" y1="193" x2="1758" y2="193" style="stroke:rgb(0,0,0);stroke-width:1;stroke-linecap:butt" />
<line x1="1756" y1="213" x2="1756" y2="193" style="stroke:rgb(0,0,0);stroke-width:1;stroke-linecap:butt" />
<line x1="1640" y1="234" x2="1767" y2="234" style="stroke:rgb(0,0,0);stroke-width:1;stroke-linecap:butt" />
<line x1="1640" y1="203" x2="1756" y2="203" style="stroke:rgb(0,0,0);stroke-width:1;stroke-linecap:butt" />
<line x1="1640" y1="234" x2="1640" y2="203" style="stroke:rgb(0,0,0);stroke-width:1;stroke-linecap:butt" />
<line x1="1650" y1="173" x2="1773" y2="173" style="stroke:rgb(0,0,0);stroke-width:1;stroke-linecap:butt" />
<line x1="1650" y1="152" x2="1771" y2="152" style="stroke:rgb(0,0,0);stroke-width:1;stroke-linecap:butt" />
<line x1="1650" y1="173" x2="1650" y2="152" style="stroke:rgb(0,0,0);stroke-width:1;stroke-linecap:butt" />
<line x1="1600" y1="218" x2="1640" y2="218" style="stroke:rgb(0,0,0);stroke-width:1;stroke-linecap:butt" />
<line x1="1600" y1="162" x2="1650" y2="162" style="stroke:rgb(0,0,0);stroke-width:1;stroke-linecap:butt" />
<line x1="1600" y1="218" x2="1600" y2="162" style="stroke:rgb(0,0,0);stroke-width:1;stroke-linecap:butt" />
<line x1="1735" y1="132" x2="1735" y2="132" style="stroke:rgb(0,0,0);stroke-width:1;stroke-linecap:butt" />
<line x1="1735" y1="112" x2="1735" y2="112" style="stroke:rgb(0,0,0);stroke-width:1;stroke-linecap:butt" />
<line x1="1735" y1="132" x2="1735" y2="112" style="stroke:rgb(0,0,0);stroke-width:1;stroke-linecap:butt" />
<line x1="1526" y1="190" x2="1600" y2="190" style="stroke:rgb(0,0,0);stroke-width:1;stroke-linecap:butt" />
<line x1="1526" y1="122" x2="1735" y2="122" style="stroke:rgb(0,0,0);stroke-width:1;stroke-linecap:butt" />
<line x1="1526" y1="190" x2="1526" y2="122" style="stroke:rgb(0,0,0);stroke-width:1;stroke-linecap:butt" />
<line x1="1444" y1="254" x2="1648" y2="254" style="stroke:rgb(0,0,0);stroke-width:1;stroke-linecap:butt" />
<line x1="1444" y1="156" x2="1526" y2="156" style="stroke:rgb(0,0,0);stroke-width:1;stroke-linecap:butt" />
<line x1="1444" y1="254" x2="1444" y2="156" style="stroke:rgb(0,0,0);stroke-width:1;stroke-linecap:butt" />
<line x1="1412" y1="305" x2="1503" y2="305" style="stroke:rgb(0,0,0);stroke-width:1;stroke-linecap:butt" />
<line x1="1412" y1="205" x2="1444" y2="205" style="stroke:rgb(0,0,0);stroke-width:1;stroke-linecap:butt" />
<line x1="1412" y1="305" x2="1412" y2="205" style="stroke:rgb(0,0,0);stroke-width:1;stroke-linecap:butt" />
<line x1="1590" y1="50" x2="1684" y2="50" style="stroke:rgb(0,0,0);stroke-width:1;stroke-linecap:butt" />
<line x1="1590" y1="30" x2="1670" y2="30" style="stroke:rgb(0,0,0);stroke-width:1;stroke-linecap:butt" />
<line x1="1590" y1="50" x2="1590" y2="30" style="stroke:rgb(0,0,0);stroke-width:1;stroke-linecap:butt" />
<line x1="1546" y1="71" x2="1619" y2="71" style="stroke:rgb(0,0,0);stroke-width:1;stroke-linecap:butt" />
<line x1="1546" y1="40" x2="1590" y2="40" style="stroke:rgb(0,0,0);stroke-width:1;stroke-linecap:butt" />
<line x1="1546" y1="71" x2="1546" y2="40" style="stroke:rgb(0,0,0);stroke-width:1;stroke-linecap:butt" />
<line x1="1436" y1="91" x2="1552" y2="91" style="stroke:rgb(0,0,0);stroke-width:1;stroke-linecap:butt" />
<line x1="1436" y1="55" x2="1546" y2="55" style="stroke:rgb(0,0,0);stroke-width:1;stroke-linecap:butt" />
<line x1="1436" y1="91" x2="1436" y2="55" style="stroke:rgb(0,0,0);stroke-width:1;stroke-linecap:butt" />
<line x1="1389" y1="255" x2="1412" y2="255" style="stroke:rgb(0,0,0);stroke-width:1;stroke-linecap:butt" />
<line x1="1389" y1="73" x2="1436" y2="73" style="stroke:rgb(0,0,0);stroke-width:1;stroke-linecap:butt" />
<line x1="1389" y1="255" x2="1389" y2="73" style="stroke:rgb(0,0,0);stroke-width:1;stroke-linecap:butt" />
<line x1="1353" y1="366" x2="1478" y2="366" style="stroke:rgb(0,0,0);stroke-width:1;stroke-linecap:butt" />
<line x1="1353" y1="164" x2="1389" y2="164" style="stroke:rgb(0,0,0);stroke-width:1;stroke-linecap:butt" />
<line x1="1353" y1="366" x2="1353" y2="164" style="stroke:rgb(0,0,0);stroke-width:1;stroke-linecap:butt" />
<line x1="1330" y1="397" x2="1664" y2="397" style="stroke:rgb(0,0,0);stroke-width:1;stroke-linecap:butt" />
<line x1="1330" y1="265" x2="1353" y2="265" style="stroke:rgb(0,0,0);stroke-width:1;stroke-linecap:butt" />
<line x1="1330" y1="397" x2="1330" y2="265" style="stroke:rgb(0,0,0);stroke-width:1;stroke-linecap:butt" />
<line x1="1305" y1="473" x2="1381" y2="473" style="stroke:rgb(0,0,0);stroke-width:1;stroke-linecap:butt" />
<line x1="1305" y1="331" x2="1330" y2="331" style="stroke:rgb(0,0,0);stroke-width:1;stroke-linecap:butt" />
<line x1="1305" y1="473" x2="1305" y2="331" style="stroke:rgb(0,0,0);stroke-width:1;stroke-linecap:butt" />
<line x1="1235" y1="550" x2="1452" y2="550" style="stroke:rgb(0,0,0);stroke-width:1;stroke-linecap:butt" />
<line x1="1235" y1="402" x2="1305" y2="402" style="stroke:rgb(0,0,0);stroke-width:1;stroke-linecap:butt" />
<line x1="1235" y1="550" x2="1235" y2="402" style="stroke:rgb(0,0,0);stroke-width:1;stroke-linecap:butt" />
<line x1="1104" y1="590" x2="1452" y2="590" style="stroke:rgb(0,0,0);stroke-width:1;stroke-linecap:butt" />
<line x1="1104" y1="476" x2="1235" y2="476" style="stroke:rgb(0,0,0);stroke-width:1;stroke-linecap:butt" />
<line x1="1104" y1="590" x2="1104" y2="476" style="stroke:rgb(0,0,0);stroke-width:1;stroke-linecap:butt" />
<line x1="1031" y1="669" x2="1151" y2="669" style="stroke:rgb(0,0,0);stroke-width:1;stroke-linecap:butt" />
<line x1="1031" y1="533" x2="1104" y2="533" style="stroke:rgb(0,0,0);stroke-width:1;stroke-linecap:butt" />
<line x1="1031" y1="669" x2="1031" y2="533" style="stroke:rgb(0,0,0);stroke-width:1;stroke-linecap:butt" />
<line x1="860" y1="723" x2="1662" y2="723" style="stroke:rgb(0,0,0);stroke-width:1;stroke-linecap:butt" />
<line x1="860" y1="601" x2="1031" y2="601" style="stroke:rgb(0,0,0);stroke-width:1;stroke-linecap:butt" />
<line x1="860" y1="723" x2="860" y2="601" style="stroke:rgb(0,0,0);stroke-width:1;stroke-linecap:butt" />
<line x1="747" y1="753" x2="1293" y2="753" style="stroke:rgb(0,0,0);stroke-width:1;stroke-linecap:butt" />
<line x1="747" y1="662" x2="860" y2="662" style="stroke:rgb(0,0,0);stroke-width:1;stroke-linecap:butt" />
<line x1="747" y1="753" x2="747" y2="662" style="stroke:rgb(0,0,0);stroke-width:1;stroke-linecap:butt" />
<line x1="290" y1="1096" x2="565" y2="1096" style="stroke:rgb(0,0,0);stroke-width:1;stroke-linecap:butt" />
<line x1="290" y1="708" x2="747" y2="708" style="stroke:rgb(0,0,0);stroke-width:1;stroke-linecap:butt" />
<line x1="290" y1="1096" x2="290" y2="708" style="stroke:rgb(0,0,0);stroke-width:1;stroke-linecap:butt" />
<line x1="135" y1="1623" x2="446" y2="1623" style="stroke:rgb(0,0,0);stroke-width:1;stroke-linecap:butt" />
<line x1="135" y1="902" x2="290" y2="902" style="stroke:rgb(0,0,0);stroke-width:1;stroke-linecap:butt" />
<line x1="135" y1="1623" x2="135" y2="902" style="stroke:rgb(0,0,0);stroke-width:1;stroke-linecap:butt" />
<line x1="12" y1="1839" x2="1071" y2="1839" style="stroke:rgb(0,0,0);stroke-width:1;stroke-linecap:butt" />
<line x1="12" y1="1263" x2="135" y2="1263" style="stroke:rgb(0,0,0);stroke-width:1;stroke-linecap:butt" />
<line x1="12" y1="1839" x2="12" y2="1263" style="stroke:rgb(0,0,0);stroke-width:1;stroke-linecap:butt" />
<text x="19" y="17" font-family="Times" font-size="12" xml:space="preserve"  fill="rgb(0,0,0)" textLength="313">PhyML ln(L)=-35256.2 975 sites LG 4 rate classes</text>
<line x1="1667" y1="13" x2="1796" y2="13" style="stroke:rgb(0,0,0);stroke-width:1;stroke-linecap:butt" />
<line x1="1667" y1="17" x2="1667" y2="9" style="stroke:rgb(0,0,0);stroke-width:1;stroke-linecap:butt" />
<line x1="1796" y1="17" x2="1796" y2="9" style="stroke:rgb(0,0,0);stroke-width:1;stroke-linecap:butt" />
<text x="1722" y="11" font-family="Times" font-size="12" xml:space="preserve"  fill="rgb(0,0,0)" textLength="20">0.1</text>
</svg>
