<?xml version="1.0" encoding="utf-8" standalone="no"?>
<!DOCTYPE svg PUBLIC "-//W3C//DTD SVG 1.1//EN" 
"http://www.w3.org/Graphics/SVG/1.1/DTD/svg11.dtd">
<svg width="1891px" height="1926px" viewBox="0 0 1891 1926"
xmlns="http://www.w3.org/2000/svg" version="1.1">
<rect x="0" y="0" width="1891" height="1926" fill="none" stroke="rgb(192,192,192)" stroke-width="1"/>
<text x="1110" y="1922" font-family="Times" font-size="12" xml:space="preserve"  fill="rgb(0,0,0)" textLength="106">YP_009113022.1</text>
<text x="1114" y="1903" font-family="Times" font-size="12" xml:space="preserve"  fill="rgb(0,0,0)" textLength="85">NP_150073.3</text>
<text x="1130" y="1883" font-family="Times" font-size="12" xml:space="preserve"  fill="rgb(0,0,0)" textLength="230">F189.56.238..4370-5297_5668.6645</text>
<text x="1134" y="1864" font-family="Times" font-size="12" xml:space="preserve"  fill="rgb(0,0,0)" textLength="106">YP_009555238.1</text>
<text x="1134" y="1844" font-family="Times" font-size="12" xml:space="preserve"  fill="rgb(0,0,0)" textLength="106">YP_009555260.1</text>
<text x="1117" y="1825" font-family="Times" font-size="12" xml:space="preserve"  fill="rgb(0,0,0)" textLength="106">YP_009924419.1</text>
<text x="1117" y="1805" font-family="Times" font-size="12" xml:space="preserve"  fill="rgb(0,0,0)" textLength="106">YP_005454239.1</text>
<text x="1139" y="1786" font-family="Times" font-size="12" xml:space="preserve"  fill="rgb(0,0,0)" textLength="82">YP_459941.1</text>
<text x="1139" y="1766" font-family="Times" font-size="12" xml:space="preserve"  fill="rgb(0,0,0)" textLength="82">YP_173236.1</text>
<text x="1128" y="1747" font-family="Times" font-size="12" xml:space="preserve"  fill="rgb(0,0,0)" textLength="82">YP_209229.2</text>
<text x="1128" y="1727" font-family="Times" font-size="12" xml:space="preserve"  fill="rgb(0,0,0)" textLength="109">NP_001012452.2</text>
<text x="1107" y="1708" font-family="Times" font-size="12" xml:space="preserve"  fill="rgb(0,0,0)" textLength="269">F189.31.102.pp1ab.4457-5384_5668.6645</text>
<text x="1109" y="1689" font-family="Times" font-size="12" xml:space="preserve"  fill="rgb(0,0,0)" textLength="106">YP_009824978.1</text>
<text x="1109" y="1669" font-family="Times" font-size="12" xml:space="preserve"  fill="rgb(0,0,0)" textLength="106">YP_009924352.1</text>
<text x="1120" y="1650" font-family="Times" font-size="12" xml:space="preserve"  fill="rgb(0,0,0)" textLength="85">NP_045299.2</text>
<text x="1120" y="1630" font-family="Times" font-size="12" xml:space="preserve"  fill="rgb(0,0,0)" textLength="106">YP_009915683.1</text>
<text x="1101" y="1611" font-family="Times" font-size="12" xml:space="preserve"  fill="rgb(0,0,0)" textLength="106">YP_009924378.1</text>
<text x="1101" y="1591" font-family="Times" font-size="12" xml:space="preserve"  fill="rgb(0,0,0)" textLength="106">YP_003029844.1</text>
<text x="1224" y="1572" font-family="Times" font-size="12" xml:space="preserve"  fill="rgb(0,0,0)" textLength="106">YP_009273004.1</text>
<text x="1224" y="1552" font-family="Times" font-size="12" xml:space="preserve"  fill="rgb(0,0,0)" textLength="106">YP_001039970.1</text>
<text x="1224" y="1533" font-family="Times" font-size="12" xml:space="preserve"  fill="rgb(0,0,0)" textLength="106">YP_009924393.1</text>
<text x="1155" y="1513" font-family="Times" font-size="12" xml:space="preserve"  fill="rgb(0,0,0)" textLength="106">YP_009072438.1</text>
<text x="1184" y="1494" font-family="Times" font-size="12" xml:space="preserve"  fill="rgb(0,0,0)" textLength="106">YP_009725307.1</text>
<text x="1184" y="1475" font-family="Times" font-size="12" xml:space="preserve"  fill="rgb(0,0,0)" textLength="106">YP_009724389.1</text>
<text x="1184" y="1455" font-family="Times" font-size="12" xml:space="preserve"  fill="rgb(0,0,0)" textLength="244">F189.264.339.nsp12.1-931_5668.6645</text>
<text x="1196" y="1436" font-family="Times" font-size="12" xml:space="preserve"  fill="rgb(0,0,0)" textLength="106">YP_003858583.1</text>
<text x="1169" y="1416" font-family="Times" font-size="12" xml:space="preserve"  fill="rgb(0,0,0)" textLength="269">F189.68.286.pp1ab.4370-5301_5668.6645</text>
<text x="1173" y="1397" font-family="Times" font-size="12" xml:space="preserve"  fill="rgb(0,0,0)" textLength="85">NP_828849.7</text>
<text x="996" y="1377" font-family="Times" font-size="12" xml:space="preserve"  fill="rgb(0,0,0)" textLength="106">YP_009513008.1</text>
<text x="1154" y="1358" font-family="Times" font-size="12" xml:space="preserve"  fill="rgb(0,0,0)" textLength="106">YP_009944320.1</text>
<text x="1154" y="1338" font-family="Times" font-size="12" xml:space="preserve"  fill="rgb(0,0,0)" textLength="106">YP_001039952.1</text>
<text x="1112" y="1319" font-family="Times" font-size="12" xml:space="preserve"  fill="rgb(0,0,0)" textLength="106">YP_001039961.1</text>
<text x="1112" y="1299" font-family="Times" font-size="12" xml:space="preserve"  fill="rgb(0,0,0)" textLength="106">YP_009944349.1</text>
<text x="1078" y="1280" font-family="Times" font-size="12" xml:space="preserve"  fill="rgb(0,0,0)" textLength="106">YP_009047223.1</text>
<text x="1078" y="1261" font-family="Times" font-size="12" xml:space="preserve"  fill="rgb(0,0,0)" textLength="106">YP_009047202.1</text>
<text x="1080" y="1241" font-family="Times" font-size="12" xml:space="preserve"  fill="rgb(0,0,0)" textLength="106">YP_007188577.3</text>
<text x="1080" y="1222" font-family="Times" font-size="12" xml:space="preserve"  fill="rgb(0,0,0)" textLength="106">YP_009944302.1</text>
<text x="1220" y="1202" font-family="Times" font-size="12" xml:space="preserve"  fill="rgb(0,0,0)" textLength="106">YP_009824973.1</text>
<text x="1212" y="1183" font-family="Times" font-size="12" xml:space="preserve"  fill="rgb(0,0,0)" textLength="106">YP_009389424.1</text>
<text x="1557" y="1163" font-family="Times" font-size="12" xml:space="preserve"  fill="rgb(0,0,0)" textLength="106">YP_009755838.1</text>
<text x="1240" y="1144" font-family="Times" font-size="12" xml:space="preserve"  fill="rgb(0,0,0)" textLength="106">YP_009256195.1</text>
<text x="1240" y="1124" font-family="Times" font-size="12" xml:space="preserve"  fill="rgb(0,0,0)" textLength="106">YP_009019180.1</text>
<text x="1244" y="1105" font-family="Times" font-size="12" xml:space="preserve"  fill="rgb(0,0,0)" textLength="106">YP_004070193.2</text>
<text x="1253" y="1085" font-family="Times" font-size="12" xml:space="preserve"  fill="rgb(0,0,0)" textLength="106">YP_009199241.1</text>
<text x="1232" y="1066" font-family="Times" font-size="12" xml:space="preserve"  fill="rgb(0,0,0)" textLength="230">F189.42.149..3999-4928_5668.6645</text>
<text x="1232" y="1047" font-family="Times" font-size="12" xml:space="preserve"  fill="rgb(0,0,0)" textLength="85">NP_058422.1</text>
<text x="1400" y="1027" font-family="Times" font-size="12" xml:space="preserve"  fill="rgb(0,0,0)" textLength="106">YP_009336483.1</text>
<text x="1403" y="1008" font-family="Times" font-size="12" xml:space="preserve"  fill="rgb(0,0,0)" textLength="106">YP_009380520.1</text>
<text x="1361" y="988" font-family="Times" font-size="12" xml:space="preserve"  fill="rgb(0,0,0)" textLength="106">YP_001552234.1</text>
<text x="1363" y="969" font-family="Times" font-size="12" xml:space="preserve"  fill="rgb(0,0,0)" textLength="106">YP_009200734.1</text>
<text x="1559" y="949" font-family="Times" font-size="12" xml:space="preserve"  fill="rgb(0,0,0)" textLength="106">YP_010115715.1</text>
<text x="1490" y="930" font-family="Times" font-size="12" xml:space="preserve"  fill="rgb(0,0,0)" textLength="106">YP_001718610.1</text>
<text x="1490" y="910" font-family="Times" font-size="12" xml:space="preserve"  fill="rgb(0,0,0)" textLength="106">YP_001718603.1</text>
<text x="1454" y="891" font-family="Times" font-size="12" xml:space="preserve"  fill="rgb(0,0,0)" textLength="106">YP_010799729.1</text>
<text x="1517" y="872" font-family="Times" font-size="12" xml:space="preserve"  fill="rgb(0,0,0)" textLength="106">YP_009199789.1</text>
<text x="1578" y="852" font-family="Times" font-size="12" xml:space="preserve"  fill="rgb(0,0,0)" textLength="106">YP_006908641.2</text>
<text x="1564" y="833" font-family="Times" font-size="12" xml:space="preserve"  fill="rgb(0,0,0)" textLength="106">YP_010037473.1</text>
<text x="1543" y="813" font-family="Times" font-size="12" xml:space="preserve"  fill="rgb(0,0,0)" textLength="106">YP_009199608.1</text>
<text x="1655" y="794" font-family="Times" font-size="12" xml:space="preserve"  fill="rgb(0,0,0)" textLength="106">YP_010037467.1</text>
<text x="1652" y="774" font-family="Times" font-size="12" xml:space="preserve"  fill="rgb(0,0,0)" textLength="85">NP_839965.1</text>
<text x="1652" y="755" font-family="Times" font-size="12" xml:space="preserve"  fill="rgb(0,0,0)" textLength="230">F189.50.194..4101-5027_5668.6645</text>
<text x="1647" y="735" font-family="Times" font-size="12" xml:space="preserve"  fill="rgb(0,0,0)" textLength="85">NP_598309.2</text>
<text x="1661" y="716" font-family="Times" font-size="12" xml:space="preserve"  fill="rgb(0,0,0)" textLength="106">YP_010799342.1</text>
<text x="1659" y="696" font-family="Times" font-size="12" xml:space="preserve"  fill="rgb(0,0,0)" textLength="106">YP_001351683.1</text>
<text x="1626" y="677" font-family="Times" font-size="12" xml:space="preserve"  fill="rgb(0,0,0)" textLength="106">YP_008439200.1</text>
<text x="1626" y="658" font-family="Times" font-size="12" xml:space="preserve"  fill="rgb(0,0,0)" textLength="106">YP_008439222.1</text>
<text x="1521" y="638" font-family="Times" font-size="12" xml:space="preserve"  fill="rgb(0,0,0)" textLength="106">YP_009755889.1</text>
<text x="1566" y="619" font-family="Times" font-size="12" xml:space="preserve"  fill="rgb(0,0,0)" textLength="106">YP_009201729.1</text>
<text x="1560" y="599" font-family="Times" font-size="12" xml:space="preserve"  fill="rgb(0,0,0)" textLength="106">YP_010799723.1</text>
<text x="1605" y="580" font-family="Times" font-size="12" xml:space="preserve"  fill="rgb(0,0,0)" textLength="106">YP_010037559.1</text>
<text x="1491" y="560" font-family="Times" font-size="12" xml:space="preserve"  fill="rgb(0,0,0)" textLength="106">YP_009194637.1</text>
<text x="1510" y="541" font-family="Times" font-size="12" xml:space="preserve"  fill="rgb(0,0,0)" textLength="85">NP_073549.1</text>
<text x="1510" y="521" font-family="Times" font-size="12" xml:space="preserve"  fill="rgb(0,0,0)" textLength="222">F189.23.58..4069-4995_5668.6645</text>
<text x="1510" y="502" font-family="Times" font-size="12" xml:space="preserve"  fill="rgb(0,0,0)" textLength="85">NP_835352.1</text>
<text x="1463" y="482" font-family="Times" font-size="12" xml:space="preserve"  fill="rgb(0,0,0)" textLength="106">YP_009824965.1</text>
<text x="1472" y="463" font-family="Times" font-size="12" xml:space="preserve"  fill="rgb(0,0,0)" textLength="106">YP_009328933.1</text>
<text x="1546" y="444" font-family="Times" font-size="12" xml:space="preserve"  fill="rgb(0,0,0)" textLength="82">YP_003766.2</text>
<text x="921" y="424" font-family="Times" font-size="12" xml:space="preserve"  fill="rgb(0,0,0)" textLength="106">YP_001876435.1</text>
<text x="826" y="405" font-family="Times" font-size="12" xml:space="preserve"  fill="rgb(0,0,0)" textLength="106">YP_009755895.1</text>
<text x="826" y="385" font-family="Times" font-size="12" xml:space="preserve"  fill="rgb(0,0,0)" textLength="106">YP_009755920.1</text>
<text x="1025" y="366" font-family="Times" font-size="12" xml:space="preserve"  fill="rgb(0,0,0)" textLength="106">YP_009824996.1</text>
<text x="889" y="346" font-family="Times" font-size="12" xml:space="preserve"  fill="rgb(0,0,0)" textLength="85">NP_740629.1</text>
<text x="889" y="327" font-family="Times" font-size="12" xml:space="preserve"  fill="rgb(0,0,0)" textLength="85">NP_066134.1</text>
<text x="889" y="307" font-family="Times" font-size="12" xml:space="preserve"  fill="rgb(0,0,0)" textLength="228">F189.87.322.nsp9.1-940_5668.6645</text>
<text x="890" y="288" font-family="Times" font-size="12" xml:space="preserve"  fill="rgb(0,0,0)" textLength="106">YP_001941164.2</text>
<text x="890" y="268" font-family="Times" font-size="12" xml:space="preserve"  fill="rgb(0,0,0)" textLength="106">YP_001941185.1</text>
<text x="802" y="249" font-family="Times" font-size="12" xml:space="preserve"  fill="rgb(0,0,0)" textLength="106">YP_009825029.1</text>
<text x="802" y="230" font-family="Times" font-size="12" xml:space="preserve"  fill="rgb(0,0,0)" textLength="106">YP_009825006.1</text>
<text x="1268" y="210" font-family="Times" font-size="12" xml:space="preserve"  fill="rgb(0,0,0)" textLength="106">YP_005352862.1</text>
<text x="1661" y="191" font-family="Times" font-size="12" xml:space="preserve"  fill="rgb(0,0,0)" textLength="106">YP_005352870.1</text>
<text x="1523" y="171" font-family="Times" font-size="12" xml:space="preserve"  fill="rgb(0,0,0)" textLength="106">YP_005352880.1</text>
<text x="1560" y="152" font-family="Times" font-size="12" xml:space="preserve"  fill="rgb(0,0,0)" textLength="106">YP_005352845.1</text>
<text x="1568" y="132" font-family="Times" font-size="12" xml:space="preserve"  fill="rgb(0,0,0)" textLength="106">YP_009513020.1</text>
<text x="1618" y="113" font-family="Times" font-size="12" xml:space="preserve"  fill="rgb(0,0,0)" textLength="106">YP_002308505.1</text>
<text x="1598" y="93" font-family="Times" font-size="12" xml:space="preserve"  fill="rgb(0,0,0)" textLength="106">YP_005352853.1</text>
<text x="1568" y="74" font-family="Times" font-size="12" xml:space="preserve"  fill="rgb(0,0,0)" textLength="106">YP_005352837.1</text>
<text x="1590" y="54" font-family="Times" font-size="12" xml:space="preserve"  fill="rgb(0,0,0)" textLength="106">YP_002308496.1</text>
<text x="1557" y="35" font-family="Times" font-size="12" xml:space="preserve"  fill="rgb(0,0,0)" textLength="106">YP_002308478.1</text>
<line x1="1131" y1="1859" x2="1131" y2="1859" style="stroke:rgb(0,0,0);stroke-width:1;stroke-linecap:butt" />
<line x1="1131" y1="1839" x2="1131" y2="1839" style="stroke:rgb(0,0,0);stroke-width:1;stroke-linecap:butt" />
<line x1="1131" y1="1859" x2="1131" y2="1839" style="stroke:rgb(0,0,0);stroke-width:1;stroke-linecap:butt" />
<line x1="1128" y1="1878" x2="1128" y2="1878" style="stroke:rgb(0,0,0);stroke-width:1;stroke-linecap:butt" />
<line x1="1128" y1="1849" x2="1131" y2="1849" style="stroke:rgb(0,0,0);stroke-width:1;stroke-linecap:butt" />
<line x1="1128" y1="1878" x2="1128" y2="1849" style="stroke:rgb(0,0,0);stroke-width:1;stroke-linecap:butt" />
<line x1="1110" y1="1898" x2="1112" y2="1898" style="stroke:rgb(0,0,0);stroke-width:1;stroke-linecap:butt" />
<line x1="1110" y1="1864" x2="1128" y2="1864" style="stroke:rgb(0,0,0);stroke-width:1;stroke-linecap:butt" />
<line x1="1110" y1="1898" x2="1110" y2="1864" style="stroke:rgb(0,0,0);stroke-width:1;stroke-linecap:butt" />
<line x1="1114" y1="1820" x2="1114" y2="1820" style="stroke:rgb(0,0,0);stroke-width:1;stroke-linecap:butt" />
<line x1="1114" y1="1800" x2="1114" y2="1800" style="stroke:rgb(0,0,0);stroke-width:1;stroke-linecap:butt" />
<line x1="1114" y1="1820" x2="1114" y2="1800" style="stroke:rgb(0,0,0);stroke-width:1;stroke-linecap:butt" />
<line x1="1069" y1="1881" x2="1110" y2="1881" style="stroke:rgb(0,0,0);stroke-width:1;stroke-linecap:butt" />
<line x1="1069" y1="1810" x2="1114" y2="1810" style="stroke:rgb(0,0,0);stroke-width:1;stroke-linecap:butt" />
<line x1="1069" y1="1881" x2="1069" y2="1810" style="stroke:rgb(0,0,0);stroke-width:1;stroke-linecap:butt" />
<line x1="1028" y1="1917" x2="1108" y2="1917" style="stroke:rgb(0,0,0);stroke-width:1;stroke-linecap:butt" />
<line x1="1028" y1="1845" x2="1069" y2="1845" style="stroke:rgb(0,0,0);stroke-width:1;stroke-linecap:butt" />
<line x1="1028" y1="1917" x2="1028" y2="1845" style="stroke:rgb(0,0,0);stroke-width:1;stroke-linecap:butt" />
<line x1="1136" y1="1781" x2="1136" y2="1781" style="stroke:rgb(0,0,0);stroke-width:1;stroke-linecap:butt" />
<line x1="1136" y1="1761" x2="1136" y2="1761" style="stroke:rgb(0,0,0);stroke-width:1;stroke-linecap:butt" />
<line x1="1136" y1="1781" x2="1136" y2="1761" style="stroke:rgb(0,0,0);stroke-width:1;stroke-linecap:butt" />
<line x1="1125" y1="1742" x2="1125" y2="1742" style="stroke:rgb(0,0,0);stroke-width:1;stroke-linecap:butt" />
<line x1="1125" y1="1722" x2="1125" y2="1722" style="stroke:rgb(0,0,0);stroke-width:1;stroke-linecap:butt" />
<line x1="1125" y1="1742" x2="1125" y2="1722" style="stroke:rgb(0,0,0);stroke-width:1;stroke-linecap:butt" />
<line x1="1118" y1="1645" x2="1118" y2="1645" style="stroke:rgb(0,0,0);stroke-width:1;stroke-linecap:butt" />
<line x1="1118" y1="1625" x2="1118" y2="1625" style="stroke:rgb(0,0,0);stroke-width:1;stroke-linecap:butt" />
<line x1="1118" y1="1645" x2="1118" y2="1625" style="stroke:rgb(0,0,0);stroke-width:1;stroke-linecap:butt" />
<line x1="1107" y1="1664" x2="1107" y2="1664" style="stroke:rgb(0,0,0);stroke-width:1;stroke-linecap:butt" />
<line x1="1107" y1="1635" x2="1118" y2="1635" style="stroke:rgb(0,0,0);stroke-width:1;stroke-linecap:butt" />
<line x1="1107" y1="1664" x2="1107" y2="1635" style="stroke:rgb(0,0,0);stroke-width:1;stroke-linecap:butt" />
<line x1="1107" y1="1684" x2="1107" y2="1684" style="stroke:rgb(0,0,0);stroke-width:1;stroke-linecap:butt" />
<line x1="1107" y1="1650" x2="1107" y2="1650" style="stroke:rgb(0,0,0);stroke-width:1;stroke-linecap:butt" />
<line x1="1107" y1="1684" x2="1107" y2="1650" style="stroke:rgb(0,0,0);stroke-width:1;stroke-linecap:butt" />
<line x1="1105" y1="1703" x2="1105" y2="1703" style="stroke:rgb(0,0,0);stroke-width:1;stroke-linecap:butt" />
<line x1="1105" y1="1667" x2="1107" y2="1667" style="stroke:rgb(0,0,0);stroke-width:1;stroke-linecap:butt" />
<line x1="1105" y1="1703" x2="1105" y2="1667" style="stroke:rgb(0,0,0);stroke-width:1;stroke-linecap:butt" />
<line x1="1101" y1="1732" x2="1125" y2="1732" style="stroke:rgb(0,0,0);stroke-width:1;stroke-linecap:butt" />
<line x1="1101" y1="1685" x2="1105" y2="1685" style="stroke:rgb(0,0,0);stroke-width:1;stroke-linecap:butt" />
<line x1="1101" y1="1732" x2="1101" y2="1685" style="stroke:rgb(0,0,0);stroke-width:1;stroke-linecap:butt" />
<line x1="1098" y1="1606" x2="1098" y2="1606" style="stroke:rgb(0,0,0);stroke-width:1;stroke-linecap:butt" />
<line x1="1098" y1="1586" x2="1098" y2="1586" style="stroke:rgb(0,0,0);stroke-width:1;stroke-linecap:butt" />
<line x1="1098" y1="1606" x2="1098" y2="1586" style="stroke:rgb(0,0,0);stroke-width:1;stroke-linecap:butt" />
<line x1="1096" y1="1708" x2="1101" y2="1708" style="stroke:rgb(0,0,0);stroke-width:1;stroke-linecap:butt" />
<line x1="1096" y1="1596" x2="1098" y2="1596" style="stroke:rgb(0,0,0);stroke-width:1;stroke-linecap:butt" />
<line x1="1096" y1="1708" x2="1096" y2="1596" style="stroke:rgb(0,0,0);stroke-width:1;stroke-linecap:butt" />
<line x1="1021" y1="1771" x2="1136" y2="1771" style="stroke:rgb(0,0,0);stroke-width:1;stroke-linecap:butt" />
<line x1="1021" y1="1652" x2="1096" y2="1652" style="stroke:rgb(0,0,0);stroke-width:1;stroke-linecap:butt" />
<line x1="1021" y1="1771" x2="1021" y2="1652" style="stroke:rgb(0,0,0);stroke-width:1;stroke-linecap:butt" />
<line x1="993" y1="1881" x2="1028" y2="1881" style="stroke:rgb(0,0,0);stroke-width:1;stroke-linecap:butt" />
<line x1="993" y1="1712" x2="1021" y2="1712" style="stroke:rgb(0,0,0);stroke-width:1;stroke-linecap:butt" />
<line x1="993" y1="1881" x2="993" y2="1712" style="stroke:rgb(0,0,0);stroke-width:1;stroke-linecap:butt" />
<line x1="1222" y1="1547" x2="1222" y2="1547" style="stroke:rgb(0,0,0);stroke-width:1;stroke-linecap:butt" />
<line x1="1222" y1="1528" x2="1222" y2="1528" style="stroke:rgb(0,0,0);stroke-width:1;stroke-linecap:butt" />
<line x1="1222" y1="1547" x2="1222" y2="1528" style="stroke:rgb(0,0,0);stroke-width:1;stroke-linecap:butt" />
<line x1="1121" y1="1567" x2="1222" y2="1567" style="stroke:rgb(0,0,0);stroke-width:1;stroke-linecap:butt" />
<line x1="1121" y1="1538" x2="1222" y2="1538" style="stroke:rgb(0,0,0);stroke-width:1;stroke-linecap:butt" />
<line x1="1121" y1="1567" x2="1121" y2="1538" style="stroke:rgb(0,0,0);stroke-width:1;stroke-linecap:butt" />
<line x1="1181" y1="1470" x2="1181" y2="1470" style="stroke:rgb(0,0,0);stroke-width:1;stroke-linecap:butt" />
<line x1="1181" y1="1450" x2="1181" y2="1450" style="stroke:rgb(0,0,0);stroke-width:1;stroke-linecap:butt" />
<line x1="1181" y1="1470" x2="1181" y2="1450" style="stroke:rgb(0,0,0);stroke-width:1;stroke-linecap:butt" />
<line x1="1181" y1="1489" x2="1181" y2="1489" style="stroke:rgb(0,0,0);stroke-width:1;stroke-linecap:butt" />
<line x1="1181" y1="1460" x2="1181" y2="1460" style="stroke:rgb(0,0,0);stroke-width:1;stroke-linecap:butt" />
<line x1="1181" y1="1489" x2="1181" y2="1460" style="stroke:rgb(0,0,0);stroke-width:1;stroke-linecap:butt" />
<line x1="1167" y1="1411" x2="1167" y2="1411" style="stroke:rgb(0,0,0);stroke-width:1;stroke-linecap:butt" />
<line x1="1167" y1="1392" x2="1171" y2="1392" style="stroke:rgb(0,0,0);stroke-width:1;stroke-linecap:butt" />
<line x1="1167" y1="1411" x2="1167" y2="1392" style="stroke:rgb(0,0,0);stroke-width:1;stroke-linecap:butt" />
<line x1="1159" y1="1431" x2="1193" y2="1431" style="stroke:rgb(0,0,0);stroke-width:1;stroke-linecap:butt" />
<line x1="1159" y1="1401" x2="1167" y2="1401" style="stroke:rgb(0,0,0);stroke-width:1;stroke-linecap:butt" />
<line x1="1159" y1="1431" x2="1159" y2="1401" style="stroke:rgb(0,0,0);stroke-width:1;stroke-linecap:butt" />
<line x1="1137" y1="1474" x2="1181" y2="1474" style="stroke:rgb(0,0,0);stroke-width:1;stroke-linecap:butt" />
<line x1="1137" y1="1416" x2="1159" y2="1416" style="stroke:rgb(0,0,0);stroke-width:1;stroke-linecap:butt" />
<line x1="1137" y1="1474" x2="1137" y2="1416" style="stroke:rgb(0,0,0);stroke-width:1;stroke-linecap:butt" />
<line x1="877" y1="1508" x2="1152" y2="1508" style="stroke:rgb(0,0,0);stroke-width:1;stroke-linecap:butt" />
<line x1="877" y1="1445" x2="1137" y2="1445" style="stroke:rgb(0,0,0);stroke-width:1;stroke-linecap:butt" />
<line x1="877" y1="1508" x2="877" y2="1445" style="stroke:rgb(0,0,0);stroke-width:1;stroke-linecap:butt" />
<line x1="758" y1="1552" x2="1121" y2="1552" style="stroke:rgb(0,0,0);stroke-width:1;stroke-linecap:butt" />
<line x1="758" y1="1477" x2="877" y2="1477" style="stroke:rgb(0,0,0);stroke-width:1;stroke-linecap:butt" />
<line x1="758" y1="1552" x2="758" y2="1477" style="stroke:rgb(0,0,0);stroke-width:1;stroke-linecap:butt" />
<line x1="1152" y1="1353" x2="1152" y2="1353" style="stroke:rgb(0,0,0);stroke-width:1;stroke-linecap:butt" />
<line x1="1152" y1="1333" x2="1152" y2="1333" style="stroke:rgb(0,0,0);stroke-width:1;stroke-linecap:butt" />
<line x1="1152" y1="1353" x2="1152" y2="1333" style="stroke:rgb(0,0,0);stroke-width:1;stroke-linecap:butt" />
<line x1="1109" y1="1314" x2="1109" y2="1314" style="stroke:rgb(0,0,0);stroke-width:1;stroke-linecap:butt" />
<line x1="1109" y1="1294" x2="1109" y2="1294" style="stroke:rgb(0,0,0);stroke-width:1;stroke-linecap:butt" />
<line x1="1109" y1="1314" x2="1109" y2="1294" style="stroke:rgb(0,0,0);stroke-width:1;stroke-linecap:butt" />
<line x1="1056" y1="1343" x2="1152" y2="1343" style="stroke:rgb(0,0,0);stroke-width:1;stroke-linecap:butt" />
<line x1="1056" y1="1304" x2="1109" y2="1304" style="stroke:rgb(0,0,0);stroke-width:1;stroke-linecap:butt" />
<line x1="1056" y1="1343" x2="1056" y2="1304" style="stroke:rgb(0,0,0);stroke-width:1;stroke-linecap:butt" />
<line x1="1077" y1="1236" x2="1077" y2="1236" style="stroke:rgb(0,0,0);stroke-width:1;stroke-linecap:butt" />
<line x1="1077" y1="1217" x2="1077" y2="1217" style="stroke:rgb(0,0,0);stroke-width:1;stroke-linecap:butt" />
<line x1="1077" y1="1236" x2="1077" y2="1217" style="stroke:rgb(0,0,0);stroke-width:1;stroke-linecap:butt" />
<line x1="1076" y1="1256" x2="1076" y2="1256" style="stroke:rgb(0,0,0);stroke-width:1;stroke-linecap:butt" />
<line x1="1076" y1="1226" x2="1077" y2="1226" style="stroke:rgb(0,0,0);stroke-width:1;stroke-linecap:butt" />
<line x1="1076" y1="1256" x2="1076" y2="1226" style="stroke:rgb(0,0,0);stroke-width:1;stroke-linecap:butt" />
<line x1="1076" y1="1275" x2="1076" y2="1275" style="stroke:rgb(0,0,0);stroke-width:1;stroke-linecap:butt" />
<line x1="1076" y1="1241" x2="1076" y2="1241" style="stroke:rgb(0,0,0);stroke-width:1;stroke-linecap:butt" />
<line x1="1076" y1="1275" x2="1076" y2="1241" style="stroke:rgb(0,0,0);stroke-width:1;stroke-linecap:butt" />
<line x1="1011" y1="1324" x2="1056" y2="1324" style="stroke:rgb(0,0,0);stroke-width:1;stroke-linecap:butt" />
<line x1="1011" y1="1258" x2="1076" y2="1258" style="stroke:rgb(0,0,0);stroke-width:1;stroke-linecap:butt" />
<line x1="1011" y1="1324" x2="1011" y2="1258" style="stroke:rgb(0,0,0);stroke-width:1;stroke-linecap:butt" />
<line x1="924" y1="1372" x2="993" y2="1372" style="stroke:rgb(0,0,0);stroke-width:1;stroke-linecap:butt" />
<line x1="924" y1="1291" x2="1011" y2="1291" style="stroke:rgb(0,0,0);stroke-width:1;stroke-linecap:butt" />
<line x1="924" y1="1372" x2="924" y2="1291" style="stroke:rgb(0,0,0);stroke-width:1;stroke-linecap:butt" />
<line x1="642" y1="1515" x2="758" y2="1515" style="stroke:rgb(0,0,0);stroke-width:1;stroke-linecap:butt" />
<line x1="642" y1="1332" x2="924" y2="1332" style="stroke:rgb(0,0,0);stroke-width:1;stroke-linecap:butt" />
<line x1="642" y1="1515" x2="642" y2="1332" style="stroke:rgb(0,0,0);stroke-width:1;stroke-linecap:butt" />
<line x1="529" y1="1796" x2="993" y2="1796" style="stroke:rgb(0,0,0);stroke-width:1;stroke-linecap:butt" />
<line x1="529" y1="1423" x2="642" y2="1423" style="stroke:rgb(0,0,0);stroke-width:1;stroke-linecap:butt" />
<line x1="529" y1="1796" x2="529" y2="1423" style="stroke:rgb(0,0,0);stroke-width:1;stroke-linecap:butt" />
<line x1="1210" y1="1197" x2="1217" y2="1197" style="stroke:rgb(0,0,0);stroke-width:1;stroke-linecap:butt" />
<line x1="1210" y1="1178" x2="1210" y2="1178" style="stroke:rgb(0,0,0);stroke-width:1;stroke-linecap:butt" />
<line x1="1210" y1="1197" x2="1210" y2="1178" style="stroke:rgb(0,0,0);stroke-width:1;stroke-linecap:butt" />
<line x1="1166" y1="1139" x2="1237" y2="1139" style="stroke:rgb(0,0,0);stroke-width:1;stroke-linecap:butt" />
<line x1="1166" y1="1119" x2="1238" y2="1119" style="stroke:rgb(0,0,0);stroke-width:1;stroke-linecap:butt" />
<line x1="1166" y1="1139" x2="1166" y2="1119" style="stroke:rgb(0,0,0);stroke-width:1;stroke-linecap:butt" />
<line x1="1229" y1="1061" x2="1229" y2="1061" style="stroke:rgb(0,0,0);stroke-width:1;stroke-linecap:butt" />
<line x1="1229" y1="1042" x2="1229" y2="1042" style="stroke:rgb(0,0,0);stroke-width:1;stroke-linecap:butt" />
<line x1="1229" y1="1061" x2="1229" y2="1042" style="stroke:rgb(0,0,0);stroke-width:1;stroke-linecap:butt" />
<line x1="1227" y1="1080" x2="1251" y2="1080" style="stroke:rgb(0,0,0);stroke-width:1;stroke-linecap:butt" />
<line x1="1227" y1="1051" x2="1229" y2="1051" style="stroke:rgb(0,0,0);stroke-width:1;stroke-linecap:butt" />
<line x1="1227" y1="1080" x2="1227" y2="1051" style="stroke:rgb(0,0,0);stroke-width:1;stroke-linecap:butt" />
<line x1="1211" y1="1100" x2="1242" y2="1100" style="stroke:rgb(0,0,0);stroke-width:1;stroke-linecap:butt" />
<line x1="1211" y1="1066" x2="1227" y2="1066" style="stroke:rgb(0,0,0);stroke-width:1;stroke-linecap:butt" />
<line x1="1211" y1="1100" x2="1211" y2="1066" style="stroke:rgb(0,0,0);stroke-width:1;stroke-linecap:butt" />
<line x1="1076" y1="1129" x2="1166" y2="1129" style="stroke:rgb(0,0,0);stroke-width:1;stroke-linecap:butt" />
<line x1="1076" y1="1083" x2="1211" y2="1083" style="stroke:rgb(0,0,0);stroke-width:1;stroke-linecap:butt" />
<line x1="1076" y1="1129" x2="1076" y2="1083" style="stroke:rgb(0,0,0);stroke-width:1;stroke-linecap:butt" />
<line x1="1358" y1="1022" x2="1398" y2="1022" style="stroke:rgb(0,0,0);stroke-width:1;stroke-linecap:butt" />
<line x1="1358" y1="1003" x2="1401" y2="1003" style="stroke:rgb(0,0,0);stroke-width:1;stroke-linecap:butt" />
<line x1="1358" y1="1022" x2="1358" y2="1003" style="stroke:rgb(0,0,0);stroke-width:1;stroke-linecap:butt" />
<line x1="1358" y1="983" x2="1358" y2="983" style="stroke:rgb(0,0,0);stroke-width:1;stroke-linecap:butt" />
<line x1="1358" y1="964" x2="1361" y2="964" style="stroke:rgb(0,0,0);stroke-width:1;stroke-linecap:butt" />
<line x1="1358" y1="983" x2="1358" y2="964" style="stroke:rgb(0,0,0);stroke-width:1;stroke-linecap:butt" />
<line x1="1382" y1="925" x2="1488" y2="925" style="stroke:rgb(0,0,0);stroke-width:1;stroke-linecap:butt" />
<line x1="1382" y1="905" x2="1488" y2="905" style="stroke:rgb(0,0,0);stroke-width:1;stroke-linecap:butt" />
<line x1="1382" y1="925" x2="1382" y2="905" style="stroke:rgb(0,0,0);stroke-width:1;stroke-linecap:butt" />
<line x1="1487" y1="847" x2="1575" y2="847" style="stroke:rgb(0,0,0);stroke-width:1;stroke-linecap:butt" />
<line x1="1487" y1="828" x2="1561" y2="828" style="stroke:rgb(0,0,0);stroke-width:1;stroke-linecap:butt" />
<line x1="1487" y1="847" x2="1487" y2="828" style="stroke:rgb(0,0,0);stroke-width:1;stroke-linecap:butt" />
<line x1="1446" y1="867" x2="1514" y2="867" style="stroke:rgb(0,0,0);stroke-width:1;stroke-linecap:butt" />
<line x1="1446" y1="837" x2="1487" y2="837" style="stroke:rgb(0,0,0);stroke-width:1;stroke-linecap:butt" />
<line x1="1446" y1="867" x2="1446" y2="837" style="stroke:rgb(0,0,0);stroke-width:1;stroke-linecap:butt" />
<line x1="1343" y1="886" x2="1451" y2="886" style="stroke:rgb(0,0,0);stroke-width:1;stroke-linecap:butt" />
<line x1="1343" y1="852" x2="1446" y2="852" style="stroke:rgb(0,0,0);stroke-width:1;stroke-linecap:butt" />
<line x1="1343" y1="886" x2="1343" y2="852" style="stroke:rgb(0,0,0);stroke-width:1;stroke-linecap:butt" />
<line x1="1649" y1="769" x2="1649" y2="769" style="stroke:rgb(0,0,0);stroke-width:1;stroke-linecap:butt" />
<line x1="1649" y1="750" x2="1649" y2="750" style="stroke:rgb(0,0,0);stroke-width:1;stroke-linecap:butt" />
<line x1="1649" y1="769" x2="1649" y2="750" style="stroke:rgb(0,0,0);stroke-width:1;stroke-linecap:butt" />
<line x1="1642" y1="760" x2="1649" y2="760" style="stroke:rgb(0,0,0);stroke-width:1;stroke-linecap:butt" />
<line x1="1642" y1="730" x2="1644" y2="730" style="stroke:rgb(0,0,0);stroke-width:1;stroke-linecap:butt" />
<line x1="1642" y1="760" x2="1642" y2="730" style="stroke:rgb(0,0,0);stroke-width:1;stroke-linecap:butt" />
<line x1="1534" y1="789" x2="1653" y2="789" style="stroke:rgb(0,0,0);stroke-width:1;stroke-linecap:butt" />
<line x1="1534" y1="745" x2="1642" y2="745" style="stroke:rgb(0,0,0);stroke-width:1;stroke-linecap:butt" />
<line x1="1534" y1="789" x2="1534" y2="745" style="stroke:rgb(0,0,0);stroke-width:1;stroke-linecap:butt" />
<line x1="1543" y1="711" x2="1658" y2="711" style="stroke:rgb(0,0,0);stroke-width:1;stroke-linecap:butt" />
<line x1="1543" y1="691" x2="1656" y2="691" style="stroke:rgb(0,0,0);stroke-width:1;stroke-linecap:butt" />
<line x1="1543" y1="711" x2="1543" y2="691" style="stroke:rgb(0,0,0);stroke-width:1;stroke-linecap:butt" />
<line x1="1497" y1="767" x2="1534" y2="767" style="stroke:rgb(0,0,0);stroke-width:1;stroke-linecap:butt" />
<line x1="1497" y1="701" x2="1543" y2="701" style="stroke:rgb(0,0,0);stroke-width:1;stroke-linecap:butt" />
<line x1="1497" y1="767" x2="1497" y2="701" style="stroke:rgb(0,0,0);stroke-width:1;stroke-linecap:butt" />
<line x1="1623" y1="672" x2="1623" y2="672" style="stroke:rgb(0,0,0);stroke-width:1;stroke-linecap:butt" />
<line x1="1623" y1="653" x2="1623" y2="653" style="stroke:rgb(0,0,0);stroke-width:1;stroke-linecap:butt" />
<line x1="1623" y1="672" x2="1623" y2="653" style="stroke:rgb(0,0,0);stroke-width:1;stroke-linecap:butt" />
<line x1="1427" y1="734" x2="1497" y2="734" style="stroke:rgb(0,0,0);stroke-width:1;stroke-linecap:butt" />
<line x1="1427" y1="662" x2="1623" y2="662" style="stroke:rgb(0,0,0);stroke-width:1;stroke-linecap:butt" />
<line x1="1427" y1="734" x2="1427" y2="662" style="stroke:rgb(0,0,0);stroke-width:1;stroke-linecap:butt" />
<line x1="1351" y1="808" x2="1541" y2="808" style="stroke:rgb(0,0,0);stroke-width:1;stroke-linecap:butt" />
<line x1="1351" y1="698" x2="1427" y2="698" style="stroke:rgb(0,0,0);stroke-width:1;stroke-linecap:butt" />
<line x1="1351" y1="808" x2="1351" y2="698" style="stroke:rgb(0,0,0);stroke-width:1;stroke-linecap:butt" />
<line x1="1454" y1="633" x2="1519" y2="633" style="stroke:rgb(0,0,0);stroke-width:1;stroke-linecap:butt" />
<line x1="1454" y1="614" x2="1563" y2="614" style="stroke:rgb(0,0,0);stroke-width:1;stroke-linecap:butt" />
<line x1="1454" y1="633" x2="1454" y2="614" style="stroke:rgb(0,0,0);stroke-width:1;stroke-linecap:butt" />
<line x1="1493" y1="594" x2="1558" y2="594" style="stroke:rgb(0,0,0);stroke-width:1;stroke-linecap:butt" />
<line x1="1493" y1="575" x2="1603" y2="575" style="stroke:rgb(0,0,0);stroke-width:1;stroke-linecap:butt" />
<line x1="1493" y1="594" x2="1493" y2="575" style="stroke:rgb(0,0,0);stroke-width:1;stroke-linecap:butt" />
<line x1="1405" y1="623" x2="1454" y2="623" style="stroke:rgb(0,0,0);stroke-width:1;stroke-linecap:butt" />
<line x1="1405" y1="584" x2="1493" y2="584" style="stroke:rgb(0,0,0);stroke-width:1;stroke-linecap:butt" />
<line x1="1405" y1="623" x2="1405" y2="584" style="stroke:rgb(0,0,0);stroke-width:1;stroke-linecap:butt" />
<line x1="1321" y1="753" x2="1351" y2="753" style="stroke:rgb(0,0,0);stroke-width:1;stroke-linecap:butt" />
<line x1="1321" y1="604" x2="1405" y2="604" style="stroke:rgb(0,0,0);stroke-width:1;stroke-linecap:butt" />
<line x1="1321" y1="753" x2="1321" y2="604" style="stroke:rgb(0,0,0);stroke-width:1;stroke-linecap:butt" />
<line x1="1299" y1="869" x2="1343" y2="869" style="stroke:rgb(0,0,0);stroke-width:1;stroke-linecap:butt" />
<line x1="1299" y1="679" x2="1321" y2="679" style="stroke:rgb(0,0,0);stroke-width:1;stroke-linecap:butt" />
<line x1="1299" y1="869" x2="1299" y2="679" style="stroke:rgb(0,0,0);stroke-width:1;stroke-linecap:butt" />
<line x1="1265" y1="915" x2="1382" y2="915" style="stroke:rgb(0,0,0);stroke-width:1;stroke-linecap:butt" />
<line x1="1265" y1="774" x2="1299" y2="774" style="stroke:rgb(0,0,0);stroke-width:1;stroke-linecap:butt" />
<line x1="1265" y1="915" x2="1265" y2="774" style="stroke:rgb(0,0,0);stroke-width:1;stroke-linecap:butt" />
<line x1="1244" y1="944" x2="1557" y2="944" style="stroke:rgb(0,0,0);stroke-width:1;stroke-linecap:butt" />
<line x1="1244" y1="844" x2="1265" y2="844" style="stroke:rgb(0,0,0);stroke-width:1;stroke-linecap:butt" />
<line x1="1244" y1="944" x2="1244" y2="844" style="stroke:rgb(0,0,0);stroke-width:1;stroke-linecap:butt" />
<line x1="1508" y1="516" x2="1508" y2="516" style="stroke:rgb(0,0,0);stroke-width:1;stroke-linecap:butt" />
<line x1="1508" y1="497" x2="1508" y2="497" style="stroke:rgb(0,0,0);stroke-width:1;stroke-linecap:butt" />
<line x1="1508" y1="516" x2="1508" y2="497" style="stroke:rgb(0,0,0);stroke-width:1;stroke-linecap:butt" />
<line x1="1508" y1="536" x2="1508" y2="536" style="stroke:rgb(0,0,0);stroke-width:1;stroke-linecap:butt" />
<line x1="1508" y1="507" x2="1508" y2="507" style="stroke:rgb(0,0,0);stroke-width:1;stroke-linecap:butt" />
<line x1="1508" y1="536" x2="1508" y2="507" style="stroke:rgb(0,0,0);stroke-width:1;stroke-linecap:butt" />
<line x1="1473" y1="555" x2="1489" y2="555" style="stroke:rgb(0,0,0);stroke-width:1;stroke-linecap:butt" />
<line x1="1473" y1="521" x2="1508" y2="521" style="stroke:rgb(0,0,0);stroke-width:1;stroke-linecap:butt" />
<line x1="1473" y1="555" x2="1473" y2="521" style="stroke:rgb(0,0,0);stroke-width:1;stroke-linecap:butt" />
<line x1="1446" y1="458" x2="1469" y2="458" style="stroke:rgb(0,0,0);stroke-width:1;stroke-linecap:butt" />
<line x1="1446" y1="439" x2="1544" y2="439" style="stroke:rgb(0,0,0);stroke-width:1;stroke-linecap:butt" />
<line x1="1446" y1="458" x2="1446" y2="439" style="stroke:rgb(0,0,0);stroke-width:1;stroke-linecap:butt" />
<line x1="1359" y1="477" x2="1460" y2="477" style="stroke:rgb(0,0,0);stroke-width:1;stroke-linecap:butt" />
<line x1="1359" y1="448" x2="1446" y2="448" style="stroke:rgb(0,0,0);stroke-width:1;stroke-linecap:butt" />
<line x1="1359" y1="477" x2="1359" y2="448" style="stroke:rgb(0,0,0);stroke-width:1;stroke-linecap:butt" />
<line x1="1292" y1="538" x2="1473" y2="538" style="stroke:rgb(0,0,0);stroke-width:1;stroke-linecap:butt" />
<line x1="1292" y1="463" x2="1359" y2="463" style="stroke:rgb(0,0,0);stroke-width:1;stroke-linecap:butt" />
<line x1="1292" y1="538" x2="1292" y2="463" style="stroke:rgb(0,0,0);stroke-width:1;stroke-linecap:butt" />
<line x1="1221" y1="894" x2="1244" y2="894" style="stroke:rgb(0,0,0);stroke-width:1;stroke-linecap:butt" />
<line x1="1221" y1="501" x2="1292" y2="501" style="stroke:rgb(0,0,0);stroke-width:1;stroke-linecap:butt" />
<line x1="1221" y1="894" x2="1221" y2="501" style="stroke:rgb(0,0,0);stroke-width:1;stroke-linecap:butt" />
<line x1="1155" y1="974" x2="1358" y2="974" style="stroke:rgb(0,0,0);stroke-width:1;stroke-linecap:butt" />
<line x1="1155" y1="697" x2="1221" y2="697" style="stroke:rgb(0,0,0);stroke-width:1;stroke-linecap:butt" />
<line x1="1155" y1="974" x2="1155" y2="697" style="stroke:rgb(0,0,0);stroke-width:1;stroke-linecap:butt" />
<line x1="1033" y1="1012" x2="1358" y2="1012" style="stroke:rgb(0,0,0);stroke-width:1;stroke-linecap:butt" />
<line x1="1033" y1="835" x2="1155" y2="835" style="stroke:rgb(0,0,0);stroke-width:1;stroke-linecap:butt" />
<line x1="1033" y1="1012" x2="1033" y2="835" style="stroke:rgb(0,0,0);stroke-width:1;stroke-linecap:butt" />
<line x1="965" y1="1106" x2="1076" y2="1106" style="stroke:rgb(0,0,0);stroke-width:1;stroke-linecap:butt" />
<line x1="965" y1="924" x2="1033" y2="924" style="stroke:rgb(0,0,0);stroke-width:1;stroke-linecap:butt" />
<line x1="965" y1="1106" x2="965" y2="924" style="stroke:rgb(0,0,0);stroke-width:1;stroke-linecap:butt" />
<line x1="804" y1="1158" x2="1555" y2="1158" style="stroke:rgb(0,0,0);stroke-width:1;stroke-linecap:butt" />
<line x1="804" y1="1015" x2="965" y2="1015" style="stroke:rgb(0,0,0);stroke-width:1;stroke-linecap:butt" />
<line x1="804" y1="1158" x2="804" y2="1015" style="stroke:rgb(0,0,0);stroke-width:1;stroke-linecap:butt" />
<line x1="699" y1="1187" x2="1210" y2="1187" style="stroke:rgb(0,0,0);stroke-width:1;stroke-linecap:butt" />
<line x1="699" y1="1087" x2="804" y2="1087" style="stroke:rgb(0,0,0);stroke-width:1;stroke-linecap:butt" />
<line x1="699" y1="1187" x2="699" y2="1087" style="stroke:rgb(0,0,0);stroke-width:1;stroke-linecap:butt" />
<line x1="272" y1="1610" x2="529" y2="1610" style="stroke:rgb(0,0,0);stroke-width:1;stroke-linecap:butt" />
<line x1="272" y1="1137" x2="699" y2="1137" style="stroke:rgb(0,0,0);stroke-width:1;stroke-linecap:butt" />
<line x1="272" y1="1610" x2="272" y2="1137" style="stroke:rgb(0,0,0);stroke-width:1;stroke-linecap:butt" />
<line x1="824" y1="400" x2="824" y2="400" style="stroke:rgb(0,0,0);stroke-width:1;stroke-linecap:butt" />
<line x1="824" y1="380" x2="824" y2="380" style="stroke:rgb(0,0,0);stroke-width:1;stroke-linecap:butt" />
<line x1="824" y1="400" x2="824" y2="380" style="stroke:rgb(0,0,0);stroke-width:1;stroke-linecap:butt" />
<line x1="887" y1="322" x2="887" y2="322" style="stroke:rgb(0,0,0);stroke-width:1;stroke-linecap:butt" />
<line x1="887" y1="302" x2="887" y2="302" style="stroke:rgb(0,0,0);stroke-width:1;stroke-linecap:butt" />
<line x1="887" y1="322" x2="887" y2="302" style="stroke:rgb(0,0,0);stroke-width:1;stroke-linecap:butt" />
<line x1="887" y1="341" x2="887" y2="341" style="stroke:rgb(0,0,0);stroke-width:1;stroke-linecap:butt" />
<line x1="887" y1="312" x2="887" y2="312" style="stroke:rgb(0,0,0);stroke-width:1;stroke-linecap:butt" />
<line x1="887" y1="341" x2="887" y2="312" style="stroke:rgb(0,0,0);stroke-width:1;stroke-linecap:butt" />
<line x1="870" y1="361" x2="1022" y2="361" style="stroke:rgb(0,0,0);stroke-width:1;stroke-linecap:butt" />
<line x1="870" y1="327" x2="887" y2="327" style="stroke:rgb(0,0,0);stroke-width:1;stroke-linecap:butt" />
<line x1="870" y1="361" x2="870" y2="327" style="stroke:rgb(0,0,0);stroke-width:1;stroke-linecap:butt" />
<line x1="887" y1="283" x2="887" y2="283" style="stroke:rgb(0,0,0);stroke-width:1;stroke-linecap:butt" />
<line x1="887" y1="263" x2="887" y2="263" style="stroke:rgb(0,0,0);stroke-width:1;stroke-linecap:butt" />
<line x1="887" y1="283" x2="887" y2="263" style="stroke:rgb(0,0,0);stroke-width:1;stroke-linecap:butt" />
<line x1="864" y1="344" x2="870" y2="344" style="stroke:rgb(0,0,0);stroke-width:1;stroke-linecap:butt" />
<line x1="864" y1="273" x2="887" y2="273" style="stroke:rgb(0,0,0);stroke-width:1;stroke-linecap:butt" />
<line x1="864" y1="344" x2="864" y2="273" style="stroke:rgb(0,0,0);stroke-width:1;stroke-linecap:butt" />
<line x1="799" y1="244" x2="799" y2="244" style="stroke:rgb(0,0,0);stroke-width:1;stroke-linecap:butt" />
<line x1="799" y1="225" x2="799" y2="225" style="stroke:rgb(0,0,0);stroke-width:1;stroke-linecap:butt" />
<line x1="799" y1="244" x2="799" y2="225" style="stroke:rgb(0,0,0);stroke-width:1;stroke-linecap:butt" />
<line x1="712" y1="308" x2="864" y2="308" style="stroke:rgb(0,0,0);stroke-width:1;stroke-linecap:butt" />
<line x1="712" y1="234" x2="799" y2="234" style="stroke:rgb(0,0,0);stroke-width:1;stroke-linecap:butt" />
<line x1="712" y1="308" x2="712" y2="234" style="stroke:rgb(0,0,0);stroke-width:1;stroke-linecap:butt" />
<line x1="624" y1="390" x2="824" y2="390" style="stroke:rgb(0,0,0);stroke-width:1;stroke-linecap:butt" />
<line x1="624" y1="271" x2="712" y2="271" style="stroke:rgb(0,0,0);stroke-width:1;stroke-linecap:butt" />
<line x1="624" y1="390" x2="624" y2="271" style="stroke:rgb(0,0,0);stroke-width:1;stroke-linecap:butt" />
<line x1="418" y1="419" x2="919" y2="419" style="stroke:rgb(0,0,0);stroke-width:1;stroke-linecap:butt" />
<line x1="418" y1="331" x2="624" y2="331" style="stroke:rgb(0,0,0);stroke-width:1;stroke-linecap:butt" />
<line x1="418" y1="419" x2="418" y2="331" style="stroke:rgb(0,0,0);stroke-width:1;stroke-linecap:butt" />
<line x1="127" y1="1373" x2="272" y2="1373" style="stroke:rgb(0,0,0);stroke-width:1;stroke-linecap:butt" />
<line x1="127" y1="375" x2="418" y2="375" style="stroke:rgb(0,0,0);stroke-width:1;stroke-linecap:butt" />
<line x1="127" y1="1373" x2="127" y2="375" style="stroke:rgb(0,0,0);stroke-width:1;stroke-linecap:butt" />
<line x1="1545" y1="147" x2="1557" y2="147" style="stroke:rgb(0,0,0);stroke-width:1;stroke-linecap:butt" />
<line x1="1545" y1="127" x2="1566" y2="127" style="stroke:rgb(0,0,0);stroke-width:1;stroke-linecap:butt" />
<line x1="1545" y1="147" x2="1545" y2="127" style="stroke:rgb(0,0,0);stroke-width:1;stroke-linecap:butt" />
<line x1="1550" y1="108" x2="1615" y2="108" style="stroke:rgb(0,0,0);stroke-width:1;stroke-linecap:butt" />
<line x1="1550" y1="88" x2="1596" y2="88" style="stroke:rgb(0,0,0);stroke-width:1;stroke-linecap:butt" />
<line x1="1550" y1="108" x2="1550" y2="88" style="stroke:rgb(0,0,0);stroke-width:1;stroke-linecap:butt" />
<line x1="1475" y1="137" x2="1545" y2="137" style="stroke:rgb(0,0,0);stroke-width:1;stroke-linecap:butt" />
<line x1="1475" y1="98" x2="1550" y2="98" style="stroke:rgb(0,0,0);stroke-width:1;stroke-linecap:butt" />
<line x1="1475" y1="137" x2="1475" y2="98" style="stroke:rgb(0,0,0);stroke-width:1;stroke-linecap:butt" />
<line x1="1498" y1="49" x2="1588" y2="49" style="stroke:rgb(0,0,0);stroke-width:1;stroke-linecap:butt" />
<line x1="1498" y1="30" x2="1554" y2="30" style="stroke:rgb(0,0,0);stroke-width:1;stroke-linecap:butt" />
<line x1="1498" y1="49" x2="1498" y2="30" style="stroke:rgb(0,0,0);stroke-width:1;stroke-linecap:butt" />
<line x1="1464" y1="69" x2="1565" y2="69" style="stroke:rgb(0,0,0);stroke-width:1;stroke-linecap:butt" />
<line x1="1464" y1="40" x2="1498" y2="40" style="stroke:rgb(0,0,0);stroke-width:1;stroke-linecap:butt" />
<line x1="1464" y1="69" x2="1464" y2="40" style="stroke:rgb(0,0,0);stroke-width:1;stroke-linecap:butt" />
<line x1="1423" y1="118" x2="1475" y2="118" style="stroke:rgb(0,0,0);stroke-width:1;stroke-linecap:butt" />
<line x1="1423" y1="54" x2="1464" y2="54" style="stroke:rgb(0,0,0);stroke-width:1;stroke-linecap:butt" />
<line x1="1423" y1="118" x2="1423" y2="54" style="stroke:rgb(0,0,0);stroke-width:1;stroke-linecap:butt" />
<line x1="1357" y1="166" x2="1520" y2="166" style="stroke:rgb(0,0,0);stroke-width:1;stroke-linecap:butt" />
<line x1="1357" y1="86" x2="1423" y2="86" style="stroke:rgb(0,0,0);stroke-width:1;stroke-linecap:butt" />
<line x1="1357" y1="166" x2="1357" y2="86" style="stroke:rgb(0,0,0);stroke-width:1;stroke-linecap:butt" />
<line x1="1137" y1="186" x2="1658" y2="186" style="stroke:rgb(0,0,0);stroke-width:1;stroke-linecap:butt" />
<line x1="1137" y1="126" x2="1357" y2="126" style="stroke:rgb(0,0,0);stroke-width:1;stroke-linecap:butt" />
<line x1="1137" y1="186" x2="1137" y2="126" style="stroke:rgb(0,0,0);stroke-width:1;stroke-linecap:butt" />
<line x1="1002" y1="205" x2="1265" y2="205" style="stroke:rgb(0,0,0);stroke-width:1;stroke-linecap:butt" />
<line x1="1002" y1="156" x2="1137" y2="156" style="stroke:rgb(0,0,0);stroke-width:1;stroke-linecap:butt" />
<line x1="1002" y1="205" x2="1002" y2="156" style="stroke:rgb(0,0,0);stroke-width:1;stroke-linecap:butt" />
<line x1="12" y1="874" x2="127" y2="874" style="stroke:rgb(0,0,0);stroke-width:1;stroke-linecap:butt" />
<line x1="12" y1="180" x2="1002" y2="180" style="stroke:rgb(0,0,0);stroke-width:1;stroke-linecap:butt" />
<line x1="12" y1="874" x2="12" y2="180" style="stroke:rgb(0,0,0);stroke-width:1;stroke-linecap:butt" />
<text x="19" y="17" font-family="Times" font-size="12" xml:space="preserve"  fill="rgb(0,0,0)" textLength="313">PhyML ln(L)=-35209.7 975 sites LG 4 rate classes</text>
<line x1="1555" y1="13" x2="1796" y2="13" style="stroke:rgb(0,0,0);stroke-width:1;stroke-linecap:butt" />
<line x1="1555" y1="17" x2="1555" y2="9" style="stroke:rgb(0,0,0);stroke-width:1;stroke-linecap:butt" />
<line x1="1796" y1="17" x2="1796" y2="9" style="stroke:rgb(0,0,0);stroke-width:1;stroke-linecap:butt" />
<text x="1666" y="11" font-family="Times" font-size="12" xml:space="preserve"  fill="rgb(0,0,0)" textLength="20">0.2</text>
</svg>
