<?xml version="1.0" encoding="utf-8" standalone="no"?>
<!DOCTYPE svg PUBLIC "-//W3C//DTD SVG 1.1//EN" 
"http://www.w3.org/Graphics/SVG/1.1/DTD/svg11.dtd">
<svg width="1197px" height="1865px" viewBox="0 0 1197 1865"
xmlns="http://www.w3.org/2000/svg" version="1.1">
<rect x="0" y="0" width="1197" height="1865" fill="none" stroke="rgb(192,192,192)" stroke-width="1"/>
<text x="537" y="1861" font-family="Times" font-size="12" xml:space="preserve"  fill="rgb(0,0,0)" textLength="106">YP_001876435.1</text>
<text x="482" y="1842" font-family="Times" font-size="12" xml:space="preserve"  fill="rgb(0,0,0)" textLength="106">YP_009755895.1</text>
<text x="482" y="1824" font-family="Times" font-size="12" xml:space="preserve"  fill="rgb(0,0,0)" textLength="106">YP_009755920.1</text>
<text x="468" y="1805" font-family="Times" font-size="12" xml:space="preserve"  fill="rgb(0,0,0)" textLength="106">YP_009825029.1</text>
<text x="468" y="1786" font-family="Times" font-size="12" xml:space="preserve"  fill="rgb(0,0,0)" textLength="106">YP_009825006.1</text>
<text x="898" y="1768" font-family="Times" font-size="12" xml:space="preserve"  fill="rgb(0,0,0)" textLength="106">YP_009824997.1</text>
<text x="519" y="1749" font-family="Times" font-size="12" xml:space="preserve"  fill="rgb(0,0,0)" textLength="106">YP_001941164.2</text>
<text x="519" y="1731" font-family="Times" font-size="12" xml:space="preserve"  fill="rgb(0,0,0)" textLength="106">YP_001941185.1</text>
<text x="597" y="1712" font-family="Times" font-size="12" xml:space="preserve"  fill="rgb(0,0,0)" textLength="106">YP_009824996.1</text>
<text x="518" y="1693" font-family="Times" font-size="12" xml:space="preserve"  fill="rgb(0,0,0)" textLength="85">NP_740629.1</text>
<text x="518" y="1675" font-family="Times" font-size="12" xml:space="preserve"  fill="rgb(0,0,0)" textLength="85">NP_066134.1</text>
<text x="518" y="1656" font-family="Times" font-size="12" xml:space="preserve"  fill="rgb(0,0,0)" textLength="228">F189.87.322.nsp9.1-940_5668.6645</text>
<text x="645" y="1637" font-family="Times" font-size="12" xml:space="preserve"  fill="rgb(0,0,0)" textLength="106">YP_009113022.1</text>
<text x="648" y="1619" font-family="Times" font-size="12" xml:space="preserve"  fill="rgb(0,0,0)" textLength="85">NP_150073.3</text>
<text x="657" y="1600" font-family="Times" font-size="12" xml:space="preserve"  fill="rgb(0,0,0)" textLength="230">F189.56.238..4370-5297_5668.6645</text>
<text x="659" y="1582" font-family="Times" font-size="12" xml:space="preserve"  fill="rgb(0,0,0)" textLength="106">YP_009555238.1</text>
<text x="659" y="1563" font-family="Times" font-size="12" xml:space="preserve"  fill="rgb(0,0,0)" textLength="106">YP_009555260.1</text>
<text x="649" y="1544" font-family="Times" font-size="12" xml:space="preserve"  fill="rgb(0,0,0)" textLength="106">YP_005454239.1</text>
<text x="649" y="1526" font-family="Times" font-size="12" xml:space="preserve"  fill="rgb(0,0,0)" textLength="106">YP_009924419.1</text>
<text x="662" y="1507" font-family="Times" font-size="12" xml:space="preserve"  fill="rgb(0,0,0)" textLength="82">YP_459941.1</text>
<text x="662" y="1488" font-family="Times" font-size="12" xml:space="preserve"  fill="rgb(0,0,0)" textLength="82">YP_173236.1</text>
<text x="640" y="1470" font-family="Times" font-size="12" xml:space="preserve"  fill="rgb(0,0,0)" textLength="106">YP_003029844.1</text>
<text x="640" y="1451" font-family="Times" font-size="12" xml:space="preserve"  fill="rgb(0,0,0)" textLength="106">YP_009924378.1</text>
<text x="655" y="1432" font-family="Times" font-size="12" xml:space="preserve"  fill="rgb(0,0,0)" textLength="82">YP_209229.2</text>
<text x="655" y="1414" font-family="Times" font-size="12" xml:space="preserve"  fill="rgb(0,0,0)" textLength="109">NP_001012452.2</text>
<text x="644" y="1395" font-family="Times" font-size="12" xml:space="preserve"  fill="rgb(0,0,0)" textLength="269">F189.31.102.pp1ab.4457-5384_5668.6645</text>
<text x="645" y="1377" font-family="Times" font-size="12" xml:space="preserve"  fill="rgb(0,0,0)" textLength="106">YP_009924352.1</text>
<text x="645" y="1358" font-family="Times" font-size="12" xml:space="preserve"  fill="rgb(0,0,0)" textLength="106">YP_009824978.1</text>
<text x="651" y="1339" font-family="Times" font-size="12" xml:space="preserve"  fill="rgb(0,0,0)" textLength="85">NP_045299.2</text>
<text x="651" y="1321" font-family="Times" font-size="12" xml:space="preserve"  fill="rgb(0,0,0)" textLength="106">YP_009915683.1</text>
<text x="671" y="1302" font-family="Times" font-size="12" xml:space="preserve"  fill="rgb(0,0,0)" textLength="106">YP_009072438.1</text>
<text x="688" y="1283" font-family="Times" font-size="12" xml:space="preserve"  fill="rgb(0,0,0)" textLength="244">F189.264.339.nsp12.1-931_5668.6645</text>
<text x="688" y="1265" font-family="Times" font-size="12" xml:space="preserve"  fill="rgb(0,0,0)" textLength="106">YP_009724389.1</text>
<text x="688" y="1246" font-family="Times" font-size="12" xml:space="preserve"  fill="rgb(0,0,0)" textLength="106">YP_009725307.1</text>
<text x="695" y="1227" font-family="Times" font-size="12" xml:space="preserve"  fill="rgb(0,0,0)" textLength="106">YP_003858583.1</text>
<text x="682" y="1209" font-family="Times" font-size="12" xml:space="preserve"  fill="rgb(0,0,0)" textLength="85">NP_828849.7</text>
<text x="679" y="1190" font-family="Times" font-size="12" xml:space="preserve"  fill="rgb(0,0,0)" textLength="269">F189.68.286.pp1ab.4370-5301_5668.6645</text>
<text x="711" y="1172" font-family="Times" font-size="12" xml:space="preserve"  fill="rgb(0,0,0)" textLength="106">YP_009273004.1</text>
<text x="711" y="1153" font-family="Times" font-size="12" xml:space="preserve"  fill="rgb(0,0,0)" textLength="106">YP_009924393.1</text>
<text x="711" y="1134" font-family="Times" font-size="12" xml:space="preserve"  fill="rgb(0,0,0)" textLength="106">YP_001039970.1</text>
<text x="579" y="1116" font-family="Times" font-size="12" xml:space="preserve"  fill="rgb(0,0,0)" textLength="106">YP_009513008.1</text>
<text x="671" y="1097" font-family="Times" font-size="12" xml:space="preserve"  fill="rgb(0,0,0)" textLength="106">YP_001039952.1</text>
<text x="671" y="1078" font-family="Times" font-size="12" xml:space="preserve"  fill="rgb(0,0,0)" textLength="106">YP_009944320.1</text>
<text x="646" y="1060" font-family="Times" font-size="12" xml:space="preserve"  fill="rgb(0,0,0)" textLength="106">YP_009944349.1</text>
<text x="646" y="1041" font-family="Times" font-size="12" xml:space="preserve"  fill="rgb(0,0,0)" textLength="106">YP_001039961.1</text>
<text x="627" y="1023" font-family="Times" font-size="12" xml:space="preserve"  fill="rgb(0,0,0)" textLength="106">YP_009047223.1</text>
<text x="627" y="1004" font-family="Times" font-size="12" xml:space="preserve"  fill="rgb(0,0,0)" textLength="106">YP_009047202.1</text>
<text x="628" y="985" font-family="Times" font-size="12" xml:space="preserve"  fill="rgb(0,0,0)" textLength="106">YP_009944302.1</text>
<text x="628" y="967" font-family="Times" font-size="12" xml:space="preserve"  fill="rgb(0,0,0)" textLength="106">YP_007188577.3</text>
<text x="708" y="948" font-family="Times" font-size="12" xml:space="preserve"  fill="rgb(0,0,0)" textLength="106">YP_009824973.1</text>
<text x="704" y="929" font-family="Times" font-size="12" xml:space="preserve"  fill="rgb(0,0,0)" textLength="106">YP_009389424.1</text>
<text x="903" y="911" font-family="Times" font-size="12" xml:space="preserve"  fill="rgb(0,0,0)" textLength="106">YP_009755838.1</text>
<text x="904" y="892" font-family="Times" font-size="12" xml:space="preserve"  fill="rgb(0,0,0)" textLength="106">YP_010115715.1</text>
<text x="865" y="873" font-family="Times" font-size="12" xml:space="preserve"  fill="rgb(0,0,0)" textLength="106">YP_001718603.1</text>
<text x="865" y="855" font-family="Times" font-size="12" xml:space="preserve"  fill="rgb(0,0,0)" textLength="106">YP_001718610.1</text>
<text x="843" y="836" font-family="Times" font-size="12" xml:space="preserve"  fill="rgb(0,0,0)" textLength="106">YP_010799729.1</text>
<text x="880" y="818" font-family="Times" font-size="12" xml:space="preserve"  fill="rgb(0,0,0)" textLength="106">YP_009199789.1</text>
<text x="915" y="799" font-family="Times" font-size="12" xml:space="preserve"  fill="rgb(0,0,0)" textLength="106">YP_006908641.2</text>
<text x="907" y="780" font-family="Times" font-size="12" xml:space="preserve"  fill="rgb(0,0,0)" textLength="106">YP_010037473.1</text>
<text x="895" y="762" font-family="Times" font-size="12" xml:space="preserve"  fill="rgb(0,0,0)" textLength="106">YP_009199608.1</text>
<text x="960" y="743" font-family="Times" font-size="12" xml:space="preserve"  fill="rgb(0,0,0)" textLength="106">YP_010037467.1</text>
<text x="958" y="724" font-family="Times" font-size="12" xml:space="preserve"  fill="rgb(0,0,0)" textLength="85">NP_839965.1</text>
<text x="958" y="706" font-family="Times" font-size="12" xml:space="preserve"  fill="rgb(0,0,0)" textLength="230">F189.50.194..4101-5027_5668.6645</text>
<text x="955" y="687" font-family="Times" font-size="12" xml:space="preserve"  fill="rgb(0,0,0)" textLength="85">NP_598309.2</text>
<text x="962" y="669" font-family="Times" font-size="12" xml:space="preserve"  fill="rgb(0,0,0)" textLength="106">YP_001351683.1</text>
<text x="963" y="650" font-family="Times" font-size="12" xml:space="preserve"  fill="rgb(0,0,0)" textLength="106">YP_010799342.1</text>
<text x="942" y="631" font-family="Times" font-size="12" xml:space="preserve"  fill="rgb(0,0,0)" textLength="106">YP_008439222.1</text>
<text x="942" y="613" font-family="Times" font-size="12" xml:space="preserve"  fill="rgb(0,0,0)" textLength="106">YP_008439200.1</text>
<text x="931" y="594" font-family="Times" font-size="12" xml:space="preserve"  fill="rgb(0,0,0)" textLength="106">YP_010037559.1</text>
<text x="905" y="575" font-family="Times" font-size="12" xml:space="preserve"  fill="rgb(0,0,0)" textLength="106">YP_010799723.1</text>
<text x="882" y="557" font-family="Times" font-size="12" xml:space="preserve"  fill="rgb(0,0,0)" textLength="106">YP_009755889.1</text>
<text x="908" y="538" font-family="Times" font-size="12" xml:space="preserve"  fill="rgb(0,0,0)" textLength="106">YP_009201729.1</text>
<text x="849" y="519" font-family="Times" font-size="12" xml:space="preserve"  fill="rgb(0,0,0)" textLength="106">YP_009824965.1</text>
<text x="854" y="501" font-family="Times" font-size="12" xml:space="preserve"  fill="rgb(0,0,0)" textLength="106">YP_009328933.1</text>
<text x="897" y="482" font-family="Times" font-size="12" xml:space="preserve"  fill="rgb(0,0,0)" textLength="82">YP_003766.2</text>
<text x="865" y="464" font-family="Times" font-size="12" xml:space="preserve"  fill="rgb(0,0,0)" textLength="106">YP_009194637.1</text>
<text x="876" y="445" font-family="Times" font-size="12" xml:space="preserve"  fill="rgb(0,0,0)" textLength="85">NP_073549.1</text>
<text x="876" y="426" font-family="Times" font-size="12" xml:space="preserve"  fill="rgb(0,0,0)" textLength="222">F189.23.58..4069-4995_5668.6645</text>
<text x="876" y="408" font-family="Times" font-size="12" xml:space="preserve"  fill="rgb(0,0,0)" textLength="85">NP_835352.1</text>
<text x="792" y="389" font-family="Times" font-size="12" xml:space="preserve"  fill="rgb(0,0,0)" textLength="106">YP_009200734.1</text>
<text x="790" y="370" font-family="Times" font-size="12" xml:space="preserve"  fill="rgb(0,0,0)" textLength="106">YP_001552234.1</text>
<text x="813" y="352" font-family="Times" font-size="12" xml:space="preserve"  fill="rgb(0,0,0)" textLength="106">YP_009336483.1</text>
<text x="815" y="333" font-family="Times" font-size="12" xml:space="preserve"  fill="rgb(0,0,0)" textLength="106">YP_009380520.1</text>
<text x="723" y="314" font-family="Times" font-size="12" xml:space="preserve"  fill="rgb(0,0,0)" textLength="106">YP_004070193.2</text>
<text x="728" y="296" font-family="Times" font-size="12" xml:space="preserve"  fill="rgb(0,0,0)" textLength="106">YP_009199241.1</text>
<text x="716" y="277" font-family="Times" font-size="12" xml:space="preserve"  fill="rgb(0,0,0)" textLength="230">F189.42.149..3999-4928_5668.6645</text>
<text x="716" y="259" font-family="Times" font-size="12" xml:space="preserve"  fill="rgb(0,0,0)" textLength="85">NP_058422.1</text>
<text x="721" y="240" font-family="Times" font-size="12" xml:space="preserve"  fill="rgb(0,0,0)" textLength="106">YP_009256195.1</text>
<text x="721" y="221" font-family="Times" font-size="12" xml:space="preserve"  fill="rgb(0,0,0)" textLength="106">YP_009019180.1</text>
<text x="736" y="203" font-family="Times" font-size="12" xml:space="preserve"  fill="rgb(0,0,0)" textLength="106">YP_005352862.1</text>
<text x="963" y="184" font-family="Times" font-size="12" xml:space="preserve"  fill="rgb(0,0,0)" textLength="106">YP_005352870.1</text>
<text x="884" y="165" font-family="Times" font-size="12" xml:space="preserve"  fill="rgb(0,0,0)" textLength="106">YP_005352880.1</text>
<text x="910" y="147" font-family="Times" font-size="12" xml:space="preserve"  fill="rgb(0,0,0)" textLength="106">YP_009513020.1</text>
<text x="905" y="128" font-family="Times" font-size="12" xml:space="preserve"  fill="rgb(0,0,0)" textLength="106">YP_005352845.1</text>
<text x="938" y="110" font-family="Times" font-size="12" xml:space="preserve"  fill="rgb(0,0,0)" textLength="106">YP_002308505.1</text>
<text x="927" y="91" font-family="Times" font-size="12" xml:space="preserve"  fill="rgb(0,0,0)" textLength="106">YP_005352853.1</text>
<text x="909" y="72" font-family="Times" font-size="12" xml:space="preserve"  fill="rgb(0,0,0)" textLength="106">YP_005352837.1</text>
<text x="903" y="54" font-family="Times" font-size="12" xml:space="preserve"  fill="rgb(0,0,0)" textLength="106">YP_002308478.1</text>
<text x="922" y="35" font-family="Times" font-size="12" xml:space="preserve"  fill="rgb(0,0,0)" textLength="106">YP_002308496.1</text>
<line x1="480" y1="1837" x2="480" y2="1837" style="stroke:rgb(0,0,0);stroke-width:1;stroke-linecap:butt" />
<line x1="480" y1="1819" x2="480" y2="1819" style="stroke:rgb(0,0,0);stroke-width:1;stroke-linecap:butt" />
<line x1="480" y1="1837" x2="480" y2="1819" style="stroke:rgb(0,0,0);stroke-width:1;stroke-linecap:butt" />
<line x1="465" y1="1800" x2="465" y2="1800" style="stroke:rgb(0,0,0);stroke-width:1;stroke-linecap:butt" />
<line x1="465" y1="1781" x2="465" y2="1781" style="stroke:rgb(0,0,0);stroke-width:1;stroke-linecap:butt" />
<line x1="465" y1="1800" x2="465" y2="1781" style="stroke:rgb(0,0,0);stroke-width:1;stroke-linecap:butt" />
<line x1="516" y1="1744" x2="516" y2="1744" style="stroke:rgb(0,0,0);stroke-width:1;stroke-linecap:butt" />
<line x1="516" y1="1726" x2="516" y2="1726" style="stroke:rgb(0,0,0);stroke-width:1;stroke-linecap:butt" />
<line x1="516" y1="1744" x2="516" y2="1726" style="stroke:rgb(0,0,0);stroke-width:1;stroke-linecap:butt" />
<line x1="516" y1="1670" x2="516" y2="1670" style="stroke:rgb(0,0,0);stroke-width:1;stroke-linecap:butt" />
<line x1="516" y1="1651" x2="516" y2="1651" style="stroke:rgb(0,0,0);stroke-width:1;stroke-linecap:butt" />
<line x1="516" y1="1670" x2="516" y2="1651" style="stroke:rgb(0,0,0);stroke-width:1;stroke-linecap:butt" />
<line x1="516" y1="1688" x2="516" y2="1688" style="stroke:rgb(0,0,0);stroke-width:1;stroke-linecap:butt" />
<line x1="516" y1="1660" x2="516" y2="1660" style="stroke:rgb(0,0,0);stroke-width:1;stroke-linecap:butt" />
<line x1="516" y1="1688" x2="516" y2="1660" style="stroke:rgb(0,0,0);stroke-width:1;stroke-linecap:butt" />
<line x1="506" y1="1707" x2="594" y2="1707" style="stroke:rgb(0,0,0);stroke-width:1;stroke-linecap:butt" />
<line x1="506" y1="1674" x2="516" y2="1674" style="stroke:rgb(0,0,0);stroke-width:1;stroke-linecap:butt" />
<line x1="506" y1="1707" x2="506" y2="1674" style="stroke:rgb(0,0,0);stroke-width:1;stroke-linecap:butt" />
<line x1="503" y1="1735" x2="516" y2="1735" style="stroke:rgb(0,0,0);stroke-width:1;stroke-linecap:butt" />
<line x1="503" y1="1691" x2="506" y2="1691" style="stroke:rgb(0,0,0);stroke-width:1;stroke-linecap:butt" />
<line x1="503" y1="1735" x2="503" y2="1691" style="stroke:rgb(0,0,0);stroke-width:1;stroke-linecap:butt" />
<line x1="503" y1="1763" x2="895" y2="1763" style="stroke:rgb(0,0,0);stroke-width:1;stroke-linecap:butt" />
<line x1="503" y1="1713" x2="503" y2="1713" style="stroke:rgb(0,0,0);stroke-width:1;stroke-linecap:butt" />
<line x1="503" y1="1763" x2="503" y2="1713" style="stroke:rgb(0,0,0);stroke-width:1;stroke-linecap:butt" />
<line x1="415" y1="1791" x2="465" y2="1791" style="stroke:rgb(0,0,0);stroke-width:1;stroke-linecap:butt" />
<line x1="415" y1="1738" x2="503" y2="1738" style="stroke:rgb(0,0,0);stroke-width:1;stroke-linecap:butt" />
<line x1="415" y1="1791" x2="415" y2="1738" style="stroke:rgb(0,0,0);stroke-width:1;stroke-linecap:butt" />
<line x1="364" y1="1828" x2="480" y2="1828" style="stroke:rgb(0,0,0);stroke-width:1;stroke-linecap:butt" />
<line x1="364" y1="1764" x2="415" y2="1764" style="stroke:rgb(0,0,0);stroke-width:1;stroke-linecap:butt" />
<line x1="364" y1="1828" x2="364" y2="1764" style="stroke:rgb(0,0,0);stroke-width:1;stroke-linecap:butt" />
<line x1="245" y1="1856" x2="534" y2="1856" style="stroke:rgb(0,0,0);stroke-width:1;stroke-linecap:butt" />
<line x1="245" y1="1796" x2="364" y2="1796" style="stroke:rgb(0,0,0);stroke-width:1;stroke-linecap:butt" />
<line x1="245" y1="1856" x2="245" y2="1796" style="stroke:rgb(0,0,0);stroke-width:1;stroke-linecap:butt" />
<line x1="657" y1="1577" x2="657" y2="1577" style="stroke:rgb(0,0,0);stroke-width:1;stroke-linecap:butt" />
<line x1="657" y1="1558" x2="657" y2="1558" style="stroke:rgb(0,0,0);stroke-width:1;stroke-linecap:butt" />
<line x1="657" y1="1577" x2="657" y2="1558" style="stroke:rgb(0,0,0);stroke-width:1;stroke-linecap:butt" />
<line x1="654" y1="1595" x2="654" y2="1595" style="stroke:rgb(0,0,0);stroke-width:1;stroke-linecap:butt" />
<line x1="654" y1="1567" x2="657" y2="1567" style="stroke:rgb(0,0,0);stroke-width:1;stroke-linecap:butt" />
<line x1="654" y1="1595" x2="654" y2="1567" style="stroke:rgb(0,0,0);stroke-width:1;stroke-linecap:butt" />
<line x1="644" y1="1614" x2="645" y2="1614" style="stroke:rgb(0,0,0);stroke-width:1;stroke-linecap:butt" />
<line x1="644" y1="1581" x2="654" y2="1581" style="stroke:rgb(0,0,0);stroke-width:1;stroke-linecap:butt" />
<line x1="644" y1="1614" x2="644" y2="1581" style="stroke:rgb(0,0,0);stroke-width:1;stroke-linecap:butt" />
<line x1="647" y1="1539" x2="647" y2="1539" style="stroke:rgb(0,0,0);stroke-width:1;stroke-linecap:butt" />
<line x1="647" y1="1521" x2="647" y2="1521" style="stroke:rgb(0,0,0);stroke-width:1;stroke-linecap:butt" />
<line x1="647" y1="1539" x2="647" y2="1521" style="stroke:rgb(0,0,0);stroke-width:1;stroke-linecap:butt" />
<line x1="621" y1="1597" x2="644" y2="1597" style="stroke:rgb(0,0,0);stroke-width:1;stroke-linecap:butt" />
<line x1="621" y1="1530" x2="647" y2="1530" style="stroke:rgb(0,0,0);stroke-width:1;stroke-linecap:butt" />
<line x1="621" y1="1597" x2="621" y2="1530" style="stroke:rgb(0,0,0);stroke-width:1;stroke-linecap:butt" />
<line x1="597" y1="1632" x2="643" y2="1632" style="stroke:rgb(0,0,0);stroke-width:1;stroke-linecap:butt" />
<line x1="597" y1="1564" x2="621" y2="1564" style="stroke:rgb(0,0,0);stroke-width:1;stroke-linecap:butt" />
<line x1="597" y1="1632" x2="597" y2="1564" style="stroke:rgb(0,0,0);stroke-width:1;stroke-linecap:butt" />
<line x1="659" y1="1502" x2="659" y2="1502" style="stroke:rgb(0,0,0);stroke-width:1;stroke-linecap:butt" />
<line x1="659" y1="1483" x2="659" y2="1483" style="stroke:rgb(0,0,0);stroke-width:1;stroke-linecap:butt" />
<line x1="659" y1="1502" x2="659" y2="1483" style="stroke:rgb(0,0,0);stroke-width:1;stroke-linecap:butt" />
<line x1="637" y1="1465" x2="637" y2="1465" style="stroke:rgb(0,0,0);stroke-width:1;stroke-linecap:butt" />
<line x1="637" y1="1446" x2="637" y2="1446" style="stroke:rgb(0,0,0);stroke-width:1;stroke-linecap:butt" />
<line x1="637" y1="1465" x2="637" y2="1446" style="stroke:rgb(0,0,0);stroke-width:1;stroke-linecap:butt" />
<line x1="653" y1="1427" x2="653" y2="1427" style="stroke:rgb(0,0,0);stroke-width:1;stroke-linecap:butt" />
<line x1="653" y1="1409" x2="653" y2="1409" style="stroke:rgb(0,0,0);stroke-width:1;stroke-linecap:butt" />
<line x1="653" y1="1427" x2="653" y2="1409" style="stroke:rgb(0,0,0);stroke-width:1;stroke-linecap:butt" />
<line x1="649" y1="1334" x2="649" y2="1334" style="stroke:rgb(0,0,0);stroke-width:1;stroke-linecap:butt" />
<line x1="649" y1="1316" x2="649" y2="1316" style="stroke:rgb(0,0,0);stroke-width:1;stroke-linecap:butt" />
<line x1="649" y1="1334" x2="649" y2="1316" style="stroke:rgb(0,0,0);stroke-width:1;stroke-linecap:butt" />
<line x1="642" y1="1353" x2="642" y2="1353" style="stroke:rgb(0,0,0);stroke-width:1;stroke-linecap:butt" />
<line x1="642" y1="1325" x2="649" y2="1325" style="stroke:rgb(0,0,0);stroke-width:1;stroke-linecap:butt" />
<line x1="642" y1="1353" x2="642" y2="1325" style="stroke:rgb(0,0,0);stroke-width:1;stroke-linecap:butt" />
<line x1="642" y1="1372" x2="642" y2="1372" style="stroke:rgb(0,0,0);stroke-width:1;stroke-linecap:butt" />
<line x1="642" y1="1339" x2="642" y2="1339" style="stroke:rgb(0,0,0);stroke-width:1;stroke-linecap:butt" />
<line x1="642" y1="1372" x2="642" y2="1339" style="stroke:rgb(0,0,0);stroke-width:1;stroke-linecap:butt" />
<line x1="641" y1="1390" x2="641" y2="1390" style="stroke:rgb(0,0,0);stroke-width:1;stroke-linecap:butt" />
<line x1="641" y1="1355" x2="642" y2="1355" style="stroke:rgb(0,0,0);stroke-width:1;stroke-linecap:butt" />
<line x1="641" y1="1390" x2="641" y2="1355" style="stroke:rgb(0,0,0);stroke-width:1;stroke-linecap:butt" />
<line x1="639" y1="1418" x2="653" y2="1418" style="stroke:rgb(0,0,0);stroke-width:1;stroke-linecap:butt" />
<line x1="639" y1="1373" x2="641" y2="1373" style="stroke:rgb(0,0,0);stroke-width:1;stroke-linecap:butt" />
<line x1="639" y1="1418" x2="639" y2="1373" style="stroke:rgb(0,0,0);stroke-width:1;stroke-linecap:butt" />
<line x1="636" y1="1455" x2="637" y2="1455" style="stroke:rgb(0,0,0);stroke-width:1;stroke-linecap:butt" />
<line x1="636" y1="1395" x2="639" y2="1395" style="stroke:rgb(0,0,0);stroke-width:1;stroke-linecap:butt" />
<line x1="636" y1="1455" x2="636" y2="1395" style="stroke:rgb(0,0,0);stroke-width:1;stroke-linecap:butt" />
<line x1="593" y1="1493" x2="659" y2="1493" style="stroke:rgb(0,0,0);stroke-width:1;stroke-linecap:butt" />
<line x1="593" y1="1425" x2="636" y2="1425" style="stroke:rgb(0,0,0);stroke-width:1;stroke-linecap:butt" />
<line x1="593" y1="1493" x2="593" y2="1425" style="stroke:rgb(0,0,0);stroke-width:1;stroke-linecap:butt" />
<line x1="577" y1="1598" x2="597" y2="1598" style="stroke:rgb(0,0,0);stroke-width:1;stroke-linecap:butt" />
<line x1="577" y1="1459" x2="593" y2="1459" style="stroke:rgb(0,0,0);stroke-width:1;stroke-linecap:butt" />
<line x1="577" y1="1598" x2="577" y2="1459" style="stroke:rgb(0,0,0);stroke-width:1;stroke-linecap:butt" />
<line x1="685" y1="1260" x2="685" y2="1260" style="stroke:rgb(0,0,0);stroke-width:1;stroke-linecap:butt" />
<line x1="685" y1="1241" x2="685" y2="1241" style="stroke:rgb(0,0,0);stroke-width:1;stroke-linecap:butt" />
<line x1="685" y1="1260" x2="685" y2="1241" style="stroke:rgb(0,0,0);stroke-width:1;stroke-linecap:butt" />
<line x1="685" y1="1278" x2="685" y2="1278" style="stroke:rgb(0,0,0);stroke-width:1;stroke-linecap:butt" />
<line x1="685" y1="1250" x2="685" y2="1250" style="stroke:rgb(0,0,0);stroke-width:1;stroke-linecap:butt" />
<line x1="685" y1="1278" x2="685" y2="1250" style="stroke:rgb(0,0,0);stroke-width:1;stroke-linecap:butt" />
<line x1="677" y1="1204" x2="679" y2="1204" style="stroke:rgb(0,0,0);stroke-width:1;stroke-linecap:butt" />
<line x1="677" y1="1185" x2="677" y2="1185" style="stroke:rgb(0,0,0);stroke-width:1;stroke-linecap:butt" />
<line x1="677" y1="1204" x2="677" y2="1185" style="stroke:rgb(0,0,0);stroke-width:1;stroke-linecap:butt" />
<line x1="672" y1="1222" x2="692" y2="1222" style="stroke:rgb(0,0,0);stroke-width:1;stroke-linecap:butt" />
<line x1="672" y1="1195" x2="677" y2="1195" style="stroke:rgb(0,0,0);stroke-width:1;stroke-linecap:butt" />
<line x1="672" y1="1222" x2="672" y2="1195" style="stroke:rgb(0,0,0);stroke-width:1;stroke-linecap:butt" />
<line x1="660" y1="1264" x2="685" y2="1264" style="stroke:rgb(0,0,0);stroke-width:1;stroke-linecap:butt" />
<line x1="660" y1="1209" x2="672" y2="1209" style="stroke:rgb(0,0,0);stroke-width:1;stroke-linecap:butt" />
<line x1="660" y1="1264" x2="660" y2="1209" style="stroke:rgb(0,0,0);stroke-width:1;stroke-linecap:butt" />
<line x1="510" y1="1297" x2="669" y2="1297" style="stroke:rgb(0,0,0);stroke-width:1;stroke-linecap:butt" />
<line x1="510" y1="1236" x2="660" y2="1236" style="stroke:rgb(0,0,0);stroke-width:1;stroke-linecap:butt" />
<line x1="510" y1="1297" x2="510" y2="1236" style="stroke:rgb(0,0,0);stroke-width:1;stroke-linecap:butt" />
<line x1="709" y1="1148" x2="709" y2="1148" style="stroke:rgb(0,0,0);stroke-width:1;stroke-linecap:butt" />
<line x1="709" y1="1129" x2="709" y2="1129" style="stroke:rgb(0,0,0);stroke-width:1;stroke-linecap:butt" />
<line x1="709" y1="1148" x2="709" y2="1129" style="stroke:rgb(0,0,0);stroke-width:1;stroke-linecap:butt" />
<line x1="650" y1="1167" x2="709" y2="1167" style="stroke:rgb(0,0,0);stroke-width:1;stroke-linecap:butt" />
<line x1="650" y1="1139" x2="709" y2="1139" style="stroke:rgb(0,0,0);stroke-width:1;stroke-linecap:butt" />
<line x1="650" y1="1167" x2="650" y2="1139" style="stroke:rgb(0,0,0);stroke-width:1;stroke-linecap:butt" />
<line x1="442" y1="1267" x2="510" y2="1267" style="stroke:rgb(0,0,0);stroke-width:1;stroke-linecap:butt" />
<line x1="442" y1="1153" x2="650" y2="1153" style="stroke:rgb(0,0,0);stroke-width:1;stroke-linecap:butt" />
<line x1="442" y1="1267" x2="442" y2="1153" style="stroke:rgb(0,0,0);stroke-width:1;stroke-linecap:butt" />
<line x1="668" y1="1092" x2="668" y2="1092" style="stroke:rgb(0,0,0);stroke-width:1;stroke-linecap:butt" />
<line x1="668" y1="1073" x2="668" y2="1073" style="stroke:rgb(0,0,0);stroke-width:1;stroke-linecap:butt" />
<line x1="668" y1="1092" x2="668" y2="1073" style="stroke:rgb(0,0,0);stroke-width:1;stroke-linecap:butt" />
<line x1="644" y1="1055" x2="644" y2="1055" style="stroke:rgb(0,0,0);stroke-width:1;stroke-linecap:butt" />
<line x1="644" y1="1036" x2="644" y2="1036" style="stroke:rgb(0,0,0);stroke-width:1;stroke-linecap:butt" />
<line x1="644" y1="1055" x2="644" y2="1036" style="stroke:rgb(0,0,0);stroke-width:1;stroke-linecap:butt" />
<line x1="613" y1="1083" x2="668" y2="1083" style="stroke:rgb(0,0,0);stroke-width:1;stroke-linecap:butt" />
<line x1="613" y1="1045" x2="644" y2="1045" style="stroke:rgb(0,0,0);stroke-width:1;stroke-linecap:butt" />
<line x1="613" y1="1083" x2="613" y2="1045" style="stroke:rgb(0,0,0);stroke-width:1;stroke-linecap:butt" />
<line x1="625" y1="980" x2="625" y2="980" style="stroke:rgb(0,0,0);stroke-width:1;stroke-linecap:butt" />
<line x1="625" y1="962" x2="625" y2="962" style="stroke:rgb(0,0,0);stroke-width:1;stroke-linecap:butt" />
<line x1="625" y1="980" x2="625" y2="962" style="stroke:rgb(0,0,0);stroke-width:1;stroke-linecap:butt" />
<line x1="624" y1="999" x2="624" y2="999" style="stroke:rgb(0,0,0);stroke-width:1;stroke-linecap:butt" />
<line x1="624" y1="971" x2="625" y2="971" style="stroke:rgb(0,0,0);stroke-width:1;stroke-linecap:butt" />
<line x1="624" y1="999" x2="624" y2="971" style="stroke:rgb(0,0,0);stroke-width:1;stroke-linecap:butt" />
<line x1="624" y1="1018" x2="624" y2="1018" style="stroke:rgb(0,0,0);stroke-width:1;stroke-linecap:butt" />
<line x1="624" y1="985" x2="624" y2="985" style="stroke:rgb(0,0,0);stroke-width:1;stroke-linecap:butt" />
<line x1="624" y1="1018" x2="624" y2="985" style="stroke:rgb(0,0,0);stroke-width:1;stroke-linecap:butt" />
<line x1="587" y1="1064" x2="613" y2="1064" style="stroke:rgb(0,0,0);stroke-width:1;stroke-linecap:butt" />
<line x1="587" y1="1001" x2="624" y2="1001" style="stroke:rgb(0,0,0);stroke-width:1;stroke-linecap:butt" />
<line x1="587" y1="1064" x2="587" y2="1001" style="stroke:rgb(0,0,0);stroke-width:1;stroke-linecap:butt" />
<line x1="537" y1="1111" x2="577" y2="1111" style="stroke:rgb(0,0,0);stroke-width:1;stroke-linecap:butt" />
<line x1="537" y1="1033" x2="587" y2="1033" style="stroke:rgb(0,0,0);stroke-width:1;stroke-linecap:butt" />
<line x1="537" y1="1111" x2="537" y2="1033" style="stroke:rgb(0,0,0);stroke-width:1;stroke-linecap:butt" />
<line x1="375" y1="1210" x2="442" y2="1210" style="stroke:rgb(0,0,0);stroke-width:1;stroke-linecap:butt" />
<line x1="375" y1="1072" x2="537" y2="1072" style="stroke:rgb(0,0,0);stroke-width:1;stroke-linecap:butt" />
<line x1="375" y1="1210" x2="375" y2="1072" style="stroke:rgb(0,0,0);stroke-width:1;stroke-linecap:butt" />
<line x1="309" y1="1529" x2="577" y2="1529" style="stroke:rgb(0,0,0);stroke-width:1;stroke-linecap:butt" />
<line x1="309" y1="1141" x2="375" y2="1141" style="stroke:rgb(0,0,0);stroke-width:1;stroke-linecap:butt" />
<line x1="309" y1="1529" x2="309" y2="1141" style="stroke:rgb(0,0,0);stroke-width:1;stroke-linecap:butt" />
<line x1="702" y1="943" x2="706" y2="943" style="stroke:rgb(0,0,0);stroke-width:1;stroke-linecap:butt" />
<line x1="702" y1="924" x2="702" y2="924" style="stroke:rgb(0,0,0);stroke-width:1;stroke-linecap:butt" />
<line x1="702" y1="943" x2="702" y2="924" style="stroke:rgb(0,0,0);stroke-width:1;stroke-linecap:butt" />
<line x1="801" y1="868" x2="862" y2="868" style="stroke:rgb(0,0,0);stroke-width:1;stroke-linecap:butt" />
<line x1="801" y1="850" x2="862" y2="850" style="stroke:rgb(0,0,0);stroke-width:1;stroke-linecap:butt" />
<line x1="801" y1="868" x2="801" y2="850" style="stroke:rgb(0,0,0);stroke-width:1;stroke-linecap:butt" />
<line x1="862" y1="794" x2="912" y2="794" style="stroke:rgb(0,0,0);stroke-width:1;stroke-linecap:butt" />
<line x1="862" y1="775" x2="905" y2="775" style="stroke:rgb(0,0,0);stroke-width:1;stroke-linecap:butt" />
<line x1="862" y1="794" x2="862" y2="775" style="stroke:rgb(0,0,0);stroke-width:1;stroke-linecap:butt" />
<line x1="838" y1="813" x2="877" y2="813" style="stroke:rgb(0,0,0);stroke-width:1;stroke-linecap:butt" />
<line x1="838" y1="785" x2="862" y2="785" style="stroke:rgb(0,0,0);stroke-width:1;stroke-linecap:butt" />
<line x1="838" y1="813" x2="838" y2="785" style="stroke:rgb(0,0,0);stroke-width:1;stroke-linecap:butt" />
<line x1="779" y1="831" x2="841" y2="831" style="stroke:rgb(0,0,0);stroke-width:1;stroke-linecap:butt" />
<line x1="779" y1="799" x2="838" y2="799" style="stroke:rgb(0,0,0);stroke-width:1;stroke-linecap:butt" />
<line x1="779" y1="831" x2="779" y2="799" style="stroke:rgb(0,0,0);stroke-width:1;stroke-linecap:butt" />
<line x1="955" y1="719" x2="955" y2="719" style="stroke:rgb(0,0,0);stroke-width:1;stroke-linecap:butt" />
<line x1="955" y1="701" x2="955" y2="701" style="stroke:rgb(0,0,0);stroke-width:1;stroke-linecap:butt" />
<line x1="955" y1="719" x2="955" y2="701" style="stroke:rgb(0,0,0);stroke-width:1;stroke-linecap:butt" />
<line x1="951" y1="710" x2="955" y2="710" style="stroke:rgb(0,0,0);stroke-width:1;stroke-linecap:butt" />
<line x1="951" y1="682" x2="952" y2="682" style="stroke:rgb(0,0,0);stroke-width:1;stroke-linecap:butt" />
<line x1="951" y1="710" x2="951" y2="682" style="stroke:rgb(0,0,0);stroke-width:1;stroke-linecap:butt" />
<line x1="889" y1="738" x2="957" y2="738" style="stroke:rgb(0,0,0);stroke-width:1;stroke-linecap:butt" />
<line x1="889" y1="696" x2="951" y2="696" style="stroke:rgb(0,0,0);stroke-width:1;stroke-linecap:butt" />
<line x1="889" y1="738" x2="889" y2="696" style="stroke:rgb(0,0,0);stroke-width:1;stroke-linecap:butt" />
<line x1="894" y1="664" x2="959" y2="664" style="stroke:rgb(0,0,0);stroke-width:1;stroke-linecap:butt" />
<line x1="894" y1="645" x2="960" y2="645" style="stroke:rgb(0,0,0);stroke-width:1;stroke-linecap:butt" />
<line x1="894" y1="664" x2="894" y2="645" style="stroke:rgb(0,0,0);stroke-width:1;stroke-linecap:butt" />
<line x1="867" y1="717" x2="889" y2="717" style="stroke:rgb(0,0,0);stroke-width:1;stroke-linecap:butt" />
<line x1="867" y1="654" x2="894" y2="654" style="stroke:rgb(0,0,0);stroke-width:1;stroke-linecap:butt" />
<line x1="867" y1="717" x2="867" y2="654" style="stroke:rgb(0,0,0);stroke-width:1;stroke-linecap:butt" />
<line x1="940" y1="626" x2="940" y2="626" style="stroke:rgb(0,0,0);stroke-width:1;stroke-linecap:butt" />
<line x1="940" y1="608" x2="940" y2="608" style="stroke:rgb(0,0,0);stroke-width:1;stroke-linecap:butt" />
<line x1="940" y1="626" x2="940" y2="608" style="stroke:rgb(0,0,0);stroke-width:1;stroke-linecap:butt" />
<line x1="827" y1="686" x2="867" y2="686" style="stroke:rgb(0,0,0);stroke-width:1;stroke-linecap:butt" />
<line x1="827" y1="617" x2="940" y2="617" style="stroke:rgb(0,0,0);stroke-width:1;stroke-linecap:butt" />
<line x1="827" y1="686" x2="827" y2="617" style="stroke:rgb(0,0,0);stroke-width:1;stroke-linecap:butt" />
<line x1="783" y1="757" x2="893" y2="757" style="stroke:rgb(0,0,0);stroke-width:1;stroke-linecap:butt" />
<line x1="783" y1="651" x2="827" y2="651" style="stroke:rgb(0,0,0);stroke-width:1;stroke-linecap:butt" />
<line x1="783" y1="757" x2="783" y2="651" style="stroke:rgb(0,0,0);stroke-width:1;stroke-linecap:butt" />
<line x1="865" y1="589" x2="928" y2="589" style="stroke:rgb(0,0,0);stroke-width:1;stroke-linecap:butt" />
<line x1="865" y1="570" x2="902" y2="570" style="stroke:rgb(0,0,0);stroke-width:1;stroke-linecap:butt" />
<line x1="865" y1="589" x2="865" y2="570" style="stroke:rgb(0,0,0);stroke-width:1;stroke-linecap:butt" />
<line x1="843" y1="552" x2="880" y2="552" style="stroke:rgb(0,0,0);stroke-width:1;stroke-linecap:butt" />
<line x1="843" y1="533" x2="906" y2="533" style="stroke:rgb(0,0,0);stroke-width:1;stroke-linecap:butt" />
<line x1="843" y1="552" x2="843" y2="533" style="stroke:rgb(0,0,0);stroke-width:1;stroke-linecap:butt" />
<line x1="814" y1="580" x2="865" y2="580" style="stroke:rgb(0,0,0);stroke-width:1;stroke-linecap:butt" />
<line x1="814" y1="542" x2="843" y2="542" style="stroke:rgb(0,0,0);stroke-width:1;stroke-linecap:butt" />
<line x1="814" y1="580" x2="814" y2="542" style="stroke:rgb(0,0,0);stroke-width:1;stroke-linecap:butt" />
<line x1="766" y1="704" x2="783" y2="704" style="stroke:rgb(0,0,0);stroke-width:1;stroke-linecap:butt" />
<line x1="766" y1="561" x2="814" y2="561" style="stroke:rgb(0,0,0);stroke-width:1;stroke-linecap:butt" />
<line x1="766" y1="704" x2="766" y2="561" style="stroke:rgb(0,0,0);stroke-width:1;stroke-linecap:butt" />
<line x1="754" y1="815" x2="779" y2="815" style="stroke:rgb(0,0,0);stroke-width:1;stroke-linecap:butt" />
<line x1="754" y1="633" x2="766" y2="633" style="stroke:rgb(0,0,0);stroke-width:1;stroke-linecap:butt" />
<line x1="754" y1="815" x2="754" y2="633" style="stroke:rgb(0,0,0);stroke-width:1;stroke-linecap:butt" />
<line x1="734" y1="859" x2="801" y2="859" style="stroke:rgb(0,0,0);stroke-width:1;stroke-linecap:butt" />
<line x1="734" y1="724" x2="754" y2="724" style="stroke:rgb(0,0,0);stroke-width:1;stroke-linecap:butt" />
<line x1="734" y1="859" x2="734" y2="724" style="stroke:rgb(0,0,0);stroke-width:1;stroke-linecap:butt" />
<line x1="721" y1="887" x2="902" y2="887" style="stroke:rgb(0,0,0);stroke-width:1;stroke-linecap:butt" />
<line x1="721" y1="791" x2="734" y2="791" style="stroke:rgb(0,0,0);stroke-width:1;stroke-linecap:butt" />
<line x1="721" y1="887" x2="721" y2="791" style="stroke:rgb(0,0,0);stroke-width:1;stroke-linecap:butt" />
<line x1="838" y1="496" x2="851" y2="496" style="stroke:rgb(0,0,0);stroke-width:1;stroke-linecap:butt" />
<line x1="838" y1="477" x2="894" y2="477" style="stroke:rgb(0,0,0);stroke-width:1;stroke-linecap:butt" />
<line x1="838" y1="496" x2="838" y2="477" style="stroke:rgb(0,0,0);stroke-width:1;stroke-linecap:butt" />
<line x1="788" y1="514" x2="846" y2="514" style="stroke:rgb(0,0,0);stroke-width:1;stroke-linecap:butt" />
<line x1="788" y1="487" x2="838" y2="487" style="stroke:rgb(0,0,0);stroke-width:1;stroke-linecap:butt" />
<line x1="788" y1="514" x2="788" y2="487" style="stroke:rgb(0,0,0);stroke-width:1;stroke-linecap:butt" />
<line x1="873" y1="421" x2="873" y2="421" style="stroke:rgb(0,0,0);stroke-width:1;stroke-linecap:butt" />
<line x1="873" y1="403" x2="873" y2="403" style="stroke:rgb(0,0,0);stroke-width:1;stroke-linecap:butt" />
<line x1="873" y1="421" x2="873" y2="403" style="stroke:rgb(0,0,0);stroke-width:1;stroke-linecap:butt" />
<line x1="873" y1="440" x2="873" y2="440" style="stroke:rgb(0,0,0);stroke-width:1;stroke-linecap:butt" />
<line x1="873" y1="412" x2="873" y2="412" style="stroke:rgb(0,0,0);stroke-width:1;stroke-linecap:butt" />
<line x1="873" y1="440" x2="873" y2="412" style="stroke:rgb(0,0,0);stroke-width:1;stroke-linecap:butt" />
<line x1="854" y1="459" x2="863" y2="459" style="stroke:rgb(0,0,0);stroke-width:1;stroke-linecap:butt" />
<line x1="854" y1="426" x2="873" y2="426" style="stroke:rgb(0,0,0);stroke-width:1;stroke-linecap:butt" />
<line x1="854" y1="459" x2="854" y2="426" style="stroke:rgb(0,0,0);stroke-width:1;stroke-linecap:butt" />
<line x1="749" y1="500" x2="788" y2="500" style="stroke:rgb(0,0,0);stroke-width:1;stroke-linecap:butt" />
<line x1="749" y1="442" x2="854" y2="442" style="stroke:rgb(0,0,0);stroke-width:1;stroke-linecap:butt" />
<line x1="749" y1="500" x2="749" y2="442" style="stroke:rgb(0,0,0);stroke-width:1;stroke-linecap:butt" />
<line x1="708" y1="839" x2="721" y2="839" style="stroke:rgb(0,0,0);stroke-width:1;stroke-linecap:butt" />
<line x1="708" y1="471" x2="749" y2="471" style="stroke:rgb(0,0,0);stroke-width:1;stroke-linecap:butt" />
<line x1="708" y1="839" x2="708" y2="471" style="stroke:rgb(0,0,0);stroke-width:1;stroke-linecap:butt" />
<line x1="787" y1="384" x2="789" y2="384" style="stroke:rgb(0,0,0);stroke-width:1;stroke-linecap:butt" />
<line x1="787" y1="365" x2="788" y2="365" style="stroke:rgb(0,0,0);stroke-width:1;stroke-linecap:butt" />
<line x1="787" y1="384" x2="787" y2="365" style="stroke:rgb(0,0,0);stroke-width:1;stroke-linecap:butt" />
<line x1="670" y1="655" x2="708" y2="655" style="stroke:rgb(0,0,0);stroke-width:1;stroke-linecap:butt" />
<line x1="670" y1="375" x2="787" y2="375" style="stroke:rgb(0,0,0);stroke-width:1;stroke-linecap:butt" />
<line x1="670" y1="655" x2="670" y2="375" style="stroke:rgb(0,0,0);stroke-width:1;stroke-linecap:butt" />
<line x1="787" y1="347" x2="810" y2="347" style="stroke:rgb(0,0,0);stroke-width:1;stroke-linecap:butt" />
<line x1="787" y1="328" x2="812" y2="328" style="stroke:rgb(0,0,0);stroke-width:1;stroke-linecap:butt" />
<line x1="787" y1="347" x2="787" y2="328" style="stroke:rgb(0,0,0);stroke-width:1;stroke-linecap:butt" />
<line x1="600" y1="515" x2="670" y2="515" style="stroke:rgb(0,0,0);stroke-width:1;stroke-linecap:butt" />
<line x1="600" y1="337" x2="787" y2="337" style="stroke:rgb(0,0,0);stroke-width:1;stroke-linecap:butt" />
<line x1="600" y1="515" x2="600" y2="337" style="stroke:rgb(0,0,0);stroke-width:1;stroke-linecap:butt" />
<line x1="713" y1="272" x2="713" y2="272" style="stroke:rgb(0,0,0);stroke-width:1;stroke-linecap:butt" />
<line x1="713" y1="254" x2="713" y2="254" style="stroke:rgb(0,0,0);stroke-width:1;stroke-linecap:butt" />
<line x1="713" y1="272" x2="713" y2="254" style="stroke:rgb(0,0,0);stroke-width:1;stroke-linecap:butt" />
<line x1="712" y1="291" x2="725" y2="291" style="stroke:rgb(0,0,0);stroke-width:1;stroke-linecap:butt" />
<line x1="712" y1="263" x2="713" y2="263" style="stroke:rgb(0,0,0);stroke-width:1;stroke-linecap:butt" />
<line x1="712" y1="291" x2="712" y2="263" style="stroke:rgb(0,0,0);stroke-width:1;stroke-linecap:butt" />
<line x1="703" y1="309" x2="720" y2="309" style="stroke:rgb(0,0,0);stroke-width:1;stroke-linecap:butt" />
<line x1="703" y1="277" x2="712" y2="277" style="stroke:rgb(0,0,0);stroke-width:1;stroke-linecap:butt" />
<line x1="703" y1="309" x2="703" y2="277" style="stroke:rgb(0,0,0);stroke-width:1;stroke-linecap:butt" />
<line x1="677" y1="235" x2="718" y2="235" style="stroke:rgb(0,0,0);stroke-width:1;stroke-linecap:butt" />
<line x1="677" y1="216" x2="718" y2="216" style="stroke:rgb(0,0,0);stroke-width:1;stroke-linecap:butt" />
<line x1="677" y1="235" x2="677" y2="216" style="stroke:rgb(0,0,0);stroke-width:1;stroke-linecap:butt" />
<line x1="625" y1="293" x2="703" y2="293" style="stroke:rgb(0,0,0);stroke-width:1;stroke-linecap:butt" />
<line x1="625" y1="226" x2="677" y2="226" style="stroke:rgb(0,0,0);stroke-width:1;stroke-linecap:butt" />
<line x1="625" y1="293" x2="625" y2="226" style="stroke:rgb(0,0,0);stroke-width:1;stroke-linecap:butt" />
<line x1="561" y1="426" x2="600" y2="426" style="stroke:rgb(0,0,0);stroke-width:1;stroke-linecap:butt" />
<line x1="561" y1="259" x2="625" y2="259" style="stroke:rgb(0,0,0);stroke-width:1;stroke-linecap:butt" />
<line x1="561" y1="426" x2="561" y2="259" style="stroke:rgb(0,0,0);stroke-width:1;stroke-linecap:butt" />
<line x1="468" y1="906" x2="900" y2="906" style="stroke:rgb(0,0,0);stroke-width:1;stroke-linecap:butt" />
<line x1="468" y1="343" x2="561" y2="343" style="stroke:rgb(0,0,0);stroke-width:1;stroke-linecap:butt" />
<line x1="468" y1="906" x2="468" y2="343" style="stroke:rgb(0,0,0);stroke-width:1;stroke-linecap:butt" />
<line x1="407" y1="934" x2="702" y2="934" style="stroke:rgb(0,0,0);stroke-width:1;stroke-linecap:butt" />
<line x1="407" y1="624" x2="468" y2="624" style="stroke:rgb(0,0,0);stroke-width:1;stroke-linecap:butt" />
<line x1="407" y1="934" x2="407" y2="624" style="stroke:rgb(0,0,0);stroke-width:1;stroke-linecap:butt" />
<line x1="161" y1="1335" x2="309" y2="1335" style="stroke:rgb(0,0,0);stroke-width:1;stroke-linecap:butt" />
<line x1="161" y1="779" x2="407" y2="779" style="stroke:rgb(0,0,0);stroke-width:1;stroke-linecap:butt" />
<line x1="161" y1="1335" x2="161" y2="779" style="stroke:rgb(0,0,0);stroke-width:1;stroke-linecap:butt" />
<line x1="78" y1="1826" x2="245" y2="1826" style="stroke:rgb(0,0,0);stroke-width:1;stroke-linecap:butt" />
<line x1="78" y1="1057" x2="161" y2="1057" style="stroke:rgb(0,0,0);stroke-width:1;stroke-linecap:butt" />
<line x1="78" y1="1826" x2="78" y2="1057" style="stroke:rgb(0,0,0);stroke-width:1;stroke-linecap:butt" />
<line x1="895" y1="142" x2="907" y2="142" style="stroke:rgb(0,0,0);stroke-width:1;stroke-linecap:butt" />
<line x1="895" y1="123" x2="902" y2="123" style="stroke:rgb(0,0,0);stroke-width:1;stroke-linecap:butt" />
<line x1="895" y1="142" x2="895" y2="123" style="stroke:rgb(0,0,0);stroke-width:1;stroke-linecap:butt" />
<line x1="898" y1="105" x2="936" y2="105" style="stroke:rgb(0,0,0);stroke-width:1;stroke-linecap:butt" />
<line x1="898" y1="86" x2="924" y2="86" style="stroke:rgb(0,0,0);stroke-width:1;stroke-linecap:butt" />
<line x1="898" y1="105" x2="898" y2="86" style="stroke:rgb(0,0,0);stroke-width:1;stroke-linecap:butt" />
<line x1="855" y1="132" x2="895" y2="132" style="stroke:rgb(0,0,0);stroke-width:1;stroke-linecap:butt" />
<line x1="855" y1="95" x2="898" y2="95" style="stroke:rgb(0,0,0);stroke-width:1;stroke-linecap:butt" />
<line x1="855" y1="132" x2="855" y2="95" style="stroke:rgb(0,0,0);stroke-width:1;stroke-linecap:butt" />
<line x1="868" y1="49" x2="900" y2="49" style="stroke:rgb(0,0,0);stroke-width:1;stroke-linecap:butt" />
<line x1="868" y1="30" x2="920" y2="30" style="stroke:rgb(0,0,0);stroke-width:1;stroke-linecap:butt" />
<line x1="868" y1="49" x2="868" y2="30" style="stroke:rgb(0,0,0);stroke-width:1;stroke-linecap:butt" />
<line x1="848" y1="67" x2="907" y2="67" style="stroke:rgb(0,0,0);stroke-width:1;stroke-linecap:butt" />
<line x1="848" y1="39" x2="868" y2="39" style="stroke:rgb(0,0,0);stroke-width:1;stroke-linecap:butt" />
<line x1="848" y1="67" x2="848" y2="39" style="stroke:rgb(0,0,0);stroke-width:1;stroke-linecap:butt" />
<line x1="825" y1="114" x2="855" y2="114" style="stroke:rgb(0,0,0);stroke-width:1;stroke-linecap:butt" />
<line x1="825" y1="53" x2="848" y2="53" style="stroke:rgb(0,0,0);stroke-width:1;stroke-linecap:butt" />
<line x1="825" y1="114" x2="825" y2="53" style="stroke:rgb(0,0,0);stroke-width:1;stroke-linecap:butt" />
<line x1="787" y1="160" x2="881" y2="160" style="stroke:rgb(0,0,0);stroke-width:1;stroke-linecap:butt" />
<line x1="787" y1="84" x2="825" y2="84" style="stroke:rgb(0,0,0);stroke-width:1;stroke-linecap:butt" />
<line x1="787" y1="160" x2="787" y2="84" style="stroke:rgb(0,0,0);stroke-width:1;stroke-linecap:butt" />
<line x1="660" y1="179" x2="960" y2="179" style="stroke:rgb(0,0,0);stroke-width:1;stroke-linecap:butt" />
<line x1="660" y1="122" x2="787" y2="122" style="stroke:rgb(0,0,0);stroke-width:1;stroke-linecap:butt" />
<line x1="660" y1="179" x2="660" y2="122" style="stroke:rgb(0,0,0);stroke-width:1;stroke-linecap:butt" />
<line x1="582" y1="198" x2="734" y2="198" style="stroke:rgb(0,0,0);stroke-width:1;stroke-linecap:butt" />
<line x1="582" y1="151" x2="660" y2="151" style="stroke:rgb(0,0,0);stroke-width:1;stroke-linecap:butt" />
<line x1="582" y1="198" x2="582" y2="151" style="stroke:rgb(0,0,0);stroke-width:1;stroke-linecap:butt" />
<line x1="12" y1="1441" x2="78" y2="1441" style="stroke:rgb(0,0,0);stroke-width:1;stroke-linecap:butt" />
<line x1="12" y1="174" x2="582" y2="174" style="stroke:rgb(0,0,0);stroke-width:1;stroke-linecap:butt" />
<line x1="12" y1="1441" x2="12" y2="174" style="stroke:rgb(0,0,0);stroke-width:1;stroke-linecap:butt" />
<text x="12" y="17" font-family="Times" font-size="12" xml:space="preserve"  fill="rgb(0,0,0)" textLength="313">PhyML ln(L)=-35282.3 975 sites LG 4 rate classes</text>
<line x1="998" y1="13" x2="1137" y2="13" style="stroke:rgb(0,0,0);stroke-width:1;stroke-linecap:butt" />
<line x1="998" y1="17" x2="998" y2="9" style="stroke:rgb(0,0,0);stroke-width:1;stroke-linecap:butt" />
<line x1="1137" y1="17" x2="1137" y2="9" style="stroke:rgb(0,0,0);stroke-width:1;stroke-linecap:butt" />
<text x="1058" y="11" font-family="Times" font-size="12" xml:space="preserve"  fill="rgb(0,0,0)" textLength="20">0.2</text>
</svg>
